  0
SECTION
  2
BLOCKS
  0
ENDSEC
  0
SECTION
  2
ENTITIES
  0
LINE
  8
0
 10
9
 11
9
 20
-38.1
 21
-24.1
  0
LINE
  8
0
 10
9
 11
23
 20
-24.1
 21
-24.1
  0
LINE
  8
0
 10
23
 11
23
 20
-24.1
 21
-38.1
  0
LINE
  8
0
 10
23
 11
9
 20
-38.1
 21
-38.1
  0
LINE
  8
0
 10
9
 11
9
 20
-19.05
 21
-5.05
  0
LINE
  8
0
 10
9
 11
23
 20
-5.05
 21
-5.05
  0
LINE
  8
0
 10
23
 11
23
 20
-5.05
 21
-19.05
  0
LINE
  8
0
 10
23
 11
9
 20
-19.05
 21
-19.05
  0
LINE
  8
0
 10
9
 11
9
 20
0
 21
14
  0
LINE
  8
0
 10
9
 11
23
 20
14
 21
14
  0
LINE
  8
0
 10
23
 11
23
 20
14
 21
0
  0
LINE
  8
0
 10
23
 11
9
 20
0
 21
0
  0
LINE
  8
0
 10
9
 11
9
 20
19.05
 21
33.05
  0
LINE
  8
0
 10
9
 11
23
 20
33.05
 21
33.05
  0
LINE
  8
0
 10
23
 11
23
 20
33.05
 21
19.05
  0
LINE
  8
0
 10
23
 11
9
 20
19.05
 21
19.05
  0
LINE
  8
0
 10
9
 11
9
 20
38.1
 21
52.1
  0
LINE
  8
0
 10
9
 11
23
 20
52.1
 21
52.1
  0
LINE
  8
0
 10
23
 11
23
 20
52.1
 21
38.1
  0
LINE
  8
0
 10
23
 11
9
 20
38.1
 21
38.1
  0
LINE
  8
0
 10
9
 11
9
 20
57.15
 21
71.15
  0
LINE
  8
0
 10
9
 11
23
 20
71.15
 21
71.15
  0
LINE
  8
0
 10
23
 11
23
 20
71.15
 21
57.15
  0
LINE
  8
0
 10
23
 11
9
 20
57.15
 21
57.15
  0
LINE
  8
0
 10
28.05
 11
28.05
 20
38.1
 21
52.1
  0
LINE
  8
0
 10
28.05
 11
42.05
 20
52.1
 21
52.1
  0
LINE
  8
0
 10
42.05
 11
42.05
 20
52.1
 21
38.1
  0
LINE
  8
0
 10
42.05
 11
28.05
 20
38.1
 21
38.1
  0
LINE
  8
0
 10
28.05
 11
28.05
 20
57.15
 21
71.15
  0
LINE
  8
0
 10
28.05
 11
42.05
 20
71.15
 21
71.15
  0
LINE
  8
0
 10
42.05
 11
42.05
 20
71.15
 21
57.15
  0
LINE
  8
0
 10
42.05
 11
28.05
 20
57.15
 21
57.15
  0
LINE
  8
0
 10
30.3
 11
30.3
 20
-38.1
 21
-24.1
  0
LINE
  8
0
 10
30.3
 11
44.3
 20
-24.1
 21
-24.1
  0
LINE
  8
0
 10
44.3
 11
44.3
 20
-24.1
 21
-38.1
  0
LINE
  8
0
 10
44.3
 11
30.3
 20
-38.1
 21
-38.1
  0
LINE
  8
0
 10
32.55
 11
32.55
 20
19.05
 21
33.05
  0
LINE
  8
0
 10
32.55
 11
46.55
 20
33.05
 21
33.05
  0
LINE
  8
0
 10
46.55
 11
46.55
 20
33.05
 21
19.05
  0
LINE
  8
0
 10
46.55
 11
32.55
 20
19.05
 21
19.05
  0
LINE
  8
0
 10
34.8
 11
34.8
 20
0
 21
14
  0
LINE
  8
0
 10
34.8
 11
48.8
 20
14
 21
14
  0
LINE
  8
0
 10
48.8
 11
48.8
 20
14
 21
0
  0
LINE
  8
0
 10
48.8
 11
34.8
 20
0
 21
0
  0
LINE
  8
0
 10
39.3
 11
39.3
 20
-19.05
 21
-5.05
  0
LINE
  8
0
 10
39.3
 11
53.3
 20
-5.05
 21
-5.05
  0
LINE
  8
0
 10
53.3
 11
53.3
 20
-5.05
 21
-19.05
  0
LINE
  8
0
 10
53.3
 11
39.3
 20
-19.05
 21
-19.05
  0
LINE
  8
0
 10
47.1
 11
47.1
 20
38.1
 21
52.1
  0
LINE
  8
0
 10
47.1
 11
61.1
 20
52.1
 21
52.1
  0
LINE
  8
0
 10
61.1
 11
61.1
 20
52.1
 21
38.1
  0
LINE
  8
0
 10
61.1
 11
47.1
 20
38.1
 21
38.1
  0
LINE
  8
0
 10
47.1
 11
47.1
 20
57.15
 21
71.15
  0
LINE
  8
0
 10
47.1
 11
61.1
 20
71.15
 21
71.15
  0
LINE
  8
0
 10
61.1
 11
61.1
 20
71.15
 21
57.15
  0
LINE
  8
0
 10
61.1
 11
47.1
 20
57.15
 21
57.15
  0
LINE
  8
0
 10
53.85
 11
53.85
 20
-38.1
 21
-24.1
  0
LINE
  8
0
 10
53.85
 11
67.85
 20
-24.1
 21
-24.1
  0
LINE
  8
0
 10
67.85
 11
67.85
 20
-24.1
 21
-38.1
  0
LINE
  8
0
 10
67.85
 11
53.85
 20
-38.1
 21
-38.1
  0
LINE
  8
0
 10
56.1
 11
56.1
 20
19.05
 21
33.05
  0
LINE
  8
0
 10
56.1
 11
70.1
 20
33.05
 21
33.05
  0
LINE
  8
0
 10
70.1
 11
70.1
 20
33.05
 21
19.05
  0
LINE
  8
0
 10
70.1
 11
56.1
 20
19.05
 21
19.05
  0
LINE
  8
0
 10
60.6
 11
60.6
 20
0
 21
14
  0
LINE
  8
0
 10
60.6
 11
74.6
 20
14
 21
14
  0
LINE
  8
0
 10
74.6
 11
74.6
 20
14
 21
0
  0
LINE
  8
0
 10
74.6
 11
60.6
 20
0
 21
0
  0
LINE
  8
0
 10
66.15
 11
66.15
 20
38.1
 21
52.1
  0
LINE
  8
0
 10
66.15
 11
80.15
 20
52.1
 21
52.1
  0
LINE
  8
0
 10
80.15
 11
80.15
 20
52.1
 21
38.1
  0
LINE
  8
0
 10
80.15
 11
66.15
 20
38.1
 21
38.1
  0
LINE
  8
0
 10
66.15
 11
66.15
 20
57.15
 21
71.15
  0
LINE
  8
0
 10
66.15
 11
80.15
 20
71.15
 21
71.15
  0
LINE
  8
0
 10
80.15
 11
80.15
 20
71.15
 21
57.15
  0
LINE
  8
0
 10
80.15
 11
66.15
 20
57.15
 21
57.15
  0
LINE
  8
0
 10
69.6
 11
69.6
 20
-19.05
 21
-5.05
  0
LINE
  8
0
 10
69.6
 11
83.6
 20
-5.05
 21
-5.05
  0
LINE
  8
0
 10
83.6
 11
83.6
 20
-5.05
 21
-19.05
  0
LINE
  8
0
 10
83.6
 11
69.6
 20
-19.05
 21
-19.05
  0
LINE
  8
0
 10
75.15
 11
75.15
 20
19.05
 21
33.05
  0
LINE
  8
0
 10
75.15
 11
89.15
 20
33.05
 21
33.05
  0
LINE
  8
0
 10
89.15
 11
89.15
 20
33.05
 21
19.05
  0
LINE
  8
0
 10
89.15
 11
75.15
 20
19.05
 21
19.05
  0
LINE
  8
0
 10
77.4
 11
77.4
 20
-38.1
 21
-24.1
  0
LINE
  8
0
 10
77.4
 11
91.4
 20
-24.1
 21
-24.1
  0
LINE
  8
0
 10
91.4
 11
91.4
 20
-24.1
 21
-38.1
  0
LINE
  8
0
 10
91.4
 11
77.4
 20
-38.1
 21
-38.1
  0
LINE
  8
0
 10
79.65
 11
79.65
 20
0
 21
14
  0
LINE
  8
0
 10
79.65
 11
93.65
 20
14
 21
14
  0
LINE
  8
0
 10
93.65
 11
93.65
 20
14
 21
0
  0
LINE
  8
0
 10
93.65
 11
79.65
 20
0
 21
0
  0
LINE
  8
0
 10
85.2
 11
85.2
 20
38.1
 21
52.1
  0
LINE
  8
0
 10
85.2
 11
99.2
 20
52.1
 21
52.1
  0
LINE
  8
0
 10
99.2
 11
99.2
 20
52.1
 21
38.1
  0
LINE
  8
0
 10
99.2
 11
85.2
 20
38.1
 21
38.1
  0
LINE
  8
0
 10
85.2
 11
85.2
 20
57.15
 21
71.15
  0
LINE
  8
0
 10
85.2
 11
99.2
 20
71.15
 21
71.15
  0
LINE
  8
0
 10
99.2
 11
99.2
 20
71.15
 21
57.15
  0
LINE
  8
0
 10
99.2
 11
85.2
 20
57.15
 21
57.15
  0
LINE
  8
0
 10
88.65
 11
88.65
 20
-19.05
 21
-5.05
  0
LINE
  8
0
 10
88.65
 11
102.65
 20
-5.05
 21
-5.05
  0
LINE
  8
0
 10
102.65
 11
102.65
 20
-5.05
 21
-19.05
  0
LINE
  8
0
 10
102.65
 11
88.65
 20
-19.05
 21
-19.05
  0
LINE
  8
0
 10
94.2
 11
94.2
 20
19.05
 21
33.05
  0
LINE
  8
0
 10
94.2
 11
108.2
 20
33.05
 21
33.05
  0
LINE
  8
0
 10
108.2
 11
108.2
 20
33.05
 21
19.05
  0
LINE
  8
0
 10
108.2
 11
94.2
 20
19.05
 21
19.05
  0
LINE
  8
0
 10
98.7
 11
98.7
 20
0
 21
14
  0
LINE
  8
0
 10
98.7
 11
112.7
 20
14
 21
14
  0
LINE
  8
0
 10
112.7
 11
112.7
 20
14
 21
0
  0
LINE
  8
0
 10
112.7
 11
98.7
 20
0
 21
0
  0
LINE
  8
0
 10
104.25
 11
104.25
 20
38.1
 21
52.1
  0
LINE
  8
0
 10
104.25
 11
118.25
 20
52.1
 21
52.1
  0
LINE
  8
0
 10
118.25
 11
118.25
 20
52.1
 21
38.1
  0
LINE
  8
0
 10
118.25
 11
104.25
 20
38.1
 21
38.1
  0
LINE
  8
0
 10
104.25
 11
104.25
 20
57.15
 21
71.15
  0
LINE
  8
0
 10
104.25
 11
118.25
 20
71.15
 21
71.15
  0
LINE
  8
0
 10
118.25
 11
118.25
 20
71.15
 21
57.15
  0
LINE
  8
0
 10
118.25
 11
104.25
 20
57.15
 21
57.15
  0
LINE
  8
0
 10
107.7
 11
107.7
 20
-19.05
 21
-5.05
  0
LINE
  8
0
 10
107.7
 11
121.7
 20
-5.05
 21
-5.05
  0
LINE
  8
0
 10
121.7
 11
121.7
 20
-5.05
 21
-19.05
  0
LINE
  8
0
 10
121.7
 11
107.7
 20
-19.05
 21
-19.05
  0
LINE
  8
0
 10
113.25
 11
113.25
 20
19.05
 21
33.05
  0
LINE
  8
0
 10
113.25
 11
127.25
 20
33.05
 21
33.05
  0
LINE
  8
0
 10
127.25
 11
127.25
 20
33.05
 21
19.05
  0
LINE
  8
0
 10
127.25
 11
113.25
 20
19.05
 21
19.05
  0
LINE
  8
0
 10
117.75
 11
117.75
 20
0
 21
14
  0
LINE
  8
0
 10
117.75
 11
131.75
 20
14
 21
14
  0
LINE
  8
0
 10
131.75
 11
131.75
 20
14
 21
0
  0
LINE
  8
0
 10
131.75
 11
117.75
 20
0
 21
0
  0
LINE
  8
0
 10
123.3
 11
123.3
 20
38.1
 21
52.1
  0
LINE
  8
0
 10
123.3
 11
137.3
 20
52.1
 21
52.1
  0
LINE
  8
0
 10
137.3
 11
137.3
 20
52.1
 21
38.1
  0
LINE
  8
0
 10
137.3
 11
123.3
 20
38.1
 21
38.1
  0
LINE
  8
0
 10
123.3
 11
123.3
 20
57.15
 21
71.15
  0
LINE
  8
0
 10
123.3
 11
137.3
 20
71.15
 21
71.15
  0
LINE
  8
0
 10
137.3
 11
137.3
 20
71.15
 21
57.15
  0
LINE
  8
0
 10
137.3
 11
123.3
 20
57.15
 21
57.15
  0
LINE
  8
0
 10
126.75
 11
126.75
 20
-19.05
 21
-5.05
  0
LINE
  8
0
 10
126.75
 11
140.75
 20
-5.05
 21
-5.05
  0
LINE
  8
0
 10
140.75
 11
140.75
 20
-5.05
 21
-19.05
  0
LINE
  8
0
 10
140.75
 11
126.75
 20
-19.05
 21
-19.05
  0
LINE
  8
0
 10
132.3
 11
132.3
 20
19.05
 21
33.05
  0
LINE
  8
0
 10
132.3
 11
146.3
 20
33.05
 21
33.05
  0
LINE
  8
0
 10
146.3
 11
146.3
 20
33.05
 21
19.05
  0
LINE
  8
0
 10
146.3
 11
132.3
 20
19.05
 21
19.05
  0
LINE
  8
0
 10
136.8
 11
136.8
 20
0
 21
14
  0
LINE
  8
0
 10
136.8
 11
150.8
 20
14
 21
14
  0
LINE
  8
0
 10
150.8
 11
150.8
 20
14
 21
0
  0
LINE
  8
0
 10
150.8
 11
136.8
 20
0
 21
0
  0
LINE
  8
0
 10
142.35
 11
142.35
 20
38.1
 21
52.1
  0
LINE
  8
0
 10
142.35
 11
156.35
 20
52.1
 21
52.1
  0
LINE
  8
0
 10
156.35
 11
156.35
 20
52.1
 21
38.1
  0
LINE
  8
0
 10
156.35
 11
142.35
 20
38.1
 21
38.1
  0
LINE
  8
0
 10
142.35
 11
142.35
 20
57.15
 21
71.15
  0
LINE
  8
0
 10
142.35
 11
156.35
 20
71.15
 21
71.15
  0
LINE
  8
0
 10
156.35
 11
156.35
 20
71.15
 21
57.15
  0
LINE
  8
0
 10
156.35
 11
142.35
 20
57.15
 21
57.15
  0
LINE
  8
0
 10
145.8
 11
145.8
 20
-19.05
 21
-5.05
  0
LINE
  8
0
 10
145.8
 11
159.8
 20
-5.05
 21
-5.05
  0
LINE
  8
0
 10
159.8
 11
159.8
 20
-5.05
 21
-19.05
  0
LINE
  8
0
 10
159.8
 11
145.8
 20
-19.05
 21
-19.05
  0
LINE
  8
0
 10
151.35
 11
151.35
 20
19.05
 21
33.05
  0
LINE
  8
0
 10
151.35
 11
165.35
 20
33.05
 21
33.05
  0
LINE
  8
0
 10
165.35
 11
165.35
 20
33.05
 21
19.05
  0
LINE
  8
0
 10
165.35
 11
151.35
 20
19.05
 21
19.05
  0
LINE
  8
0
 10
152.7
 11
152.7
 20
-38.1
 21
-24.1
  0
LINE
  8
0
 10
152.7
 11
166.7
 20
-24.1
 21
-24.1
  0
LINE
  8
0
 10
166.7
 11
166.7
 20
-24.1
 21
-38.1
  0
LINE
  8
0
 10
166.7
 11
152.7
 20
-38.1
 21
-38.1
  0
LINE
  8
0
 10
155.85
 11
155.85
 20
0
 21
14
  0
LINE
  8
0
 10
155.85
 11
169.85
 20
14
 21
14
  0
LINE
  8
0
 10
169.85
 11
169.85
 20
14
 21
0
  0
LINE
  8
0
 10
169.85
 11
155.85
 20
0
 21
0
  0
LINE
  8
0
 10
161.4
 11
161.4
 20
38.1
 21
52.1
  0
LINE
  8
0
 10
161.4
 11
175.4
 20
52.1
 21
52.1
  0
LINE
  8
0
 10
175.4
 11
175.4
 20
52.1
 21
38.1
  0
LINE
  8
0
 10
175.4
 11
161.4
 20
38.1
 21
38.1
  0
LINE
  8
0
 10
161.4
 11
161.4
 20
57.15
 21
71.15
  0
LINE
  8
0
 10
161.4
 11
175.4
 20
71.15
 21
71.15
  0
LINE
  8
0
 10
175.4
 11
175.4
 20
71.15
 21
57.15
  0
LINE
  8
0
 10
175.4
 11
161.4
 20
57.15
 21
57.15
  0
LINE
  8
0
 10
164.85
 11
164.85
 20
-19.05
 21
-5.05
  0
LINE
  8
0
 10
164.85
 11
178.85
 20
-5.05
 21
-5.05
  0
LINE
  8
0
 10
178.85
 11
178.85
 20
-5.05
 21
-19.05
  0
LINE
  8
0
 10
178.85
 11
164.85
 20
-19.05
 21
-19.05
  0
LINE
  8
0
 10
170.4
 11
170.4
 20
19.05
 21
33.05
  0
LINE
  8
0
 10
170.4
 11
184.4
 20
33.05
 21
33.05
  0
LINE
  8
0
 10
184.4
 11
184.4
 20
33.05
 21
19.05
  0
LINE
  8
0
 10
184.4
 11
170.4
 20
19.05
 21
19.05
  0
LINE
  8
0
 10
174.9
 11
174.9
 20
0
 21
14
  0
LINE
  8
0
 10
174.9
 11
188.9
 20
14
 21
14
  0
LINE
  8
0
 10
188.9
 11
188.9
 20
14
 21
0
  0
LINE
  8
0
 10
188.9
 11
174.9
 20
0
 21
0
  0
LINE
  8
0
 10
180.45
 11
180.45
 20
38.1
 21
52.1
  0
LINE
  8
0
 10
180.45
 11
194.45
 20
52.1
 21
52.1
  0
LINE
  8
0
 10
194.45
 11
194.45
 20
52.1
 21
38.1
  0
LINE
  8
0
 10
194.45
 11
180.45
 20
38.1
 21
38.1
  0
LINE
  8
0
 10
180.45
 11
180.45
 20
57.15
 21
71.15
  0
LINE
  8
0
 10
180.45
 11
194.45
 20
71.15
 21
71.15
  0
LINE
  8
0
 10
194.45
 11
194.45
 20
71.15
 21
57.15
  0
LINE
  8
0
 10
194.45
 11
180.45
 20
57.15
 21
57.15
  0
LINE
  8
0
 10
183.9
 11
183.9
 20
-19.05
 21
-5.05
  0
LINE
  8
0
 10
183.9
 11
197.9
 20
-5.05
 21
-5.05
  0
LINE
  8
0
 10
197.9
 11
197.9
 20
-5.05
 21
-19.05
  0
LINE
  8
0
 10
197.9
 11
183.9
 20
-19.05
 21
-19.05
  0
LINE
  8
0
 10
189.45
 11
189.45
 20
19.05
 21
33.05
  0
LINE
  8
0
 10
189.45
 11
203.45
 20
33.05
 21
33.05
  0
LINE
  8
0
 10
203.45
 11
203.45
 20
33.05
 21
19.05
  0
LINE
  8
0
 10
203.45
 11
189.45
 20
19.05
 21
19.05
  0
LINE
  8
0
 10
193.95
 11
193.95
 20
0
 21
14
  0
LINE
  8
0
 10
193.95
 11
207.95
 20
14
 21
14
  0
LINE
  8
0
 10
207.95
 11
207.95
 20
14
 21
0
  0
LINE
  8
0
 10
207.95
 11
193.95
 20
0
 21
0
  0
LINE
  8
0
 10
199.5
 11
199.5
 20
38.1
 21
52.1
  0
LINE
  8
0
 10
199.5
 11
213.5
 20
52.1
 21
52.1
  0
LINE
  8
0
 10
213.5
 11
213.5
 20
52.1
 21
38.1
  0
LINE
  8
0
 10
213.5
 11
199.5
 20
38.1
 21
38.1
  0
LINE
  8
0
 10
199.5
 11
199.5
 20
57.15
 21
71.15
  0
LINE
  8
0
 10
199.5
 11
213.5
 20
71.15
 21
71.15
  0
LINE
  8
0
 10
213.5
 11
213.5
 20
71.15
 21
57.15
  0
LINE
  8
0
 10
213.5
 11
199.5
 20
57.15
 21
57.15
  0
LINE
  8
0
 10
202.95
 11
202.95
 20
-19.05
 21
-5.05
  0
LINE
  8
0
 10
202.95
 11
216.95
 20
-5.05
 21
-5.05
  0
LINE
  8
0
 10
216.95
 11
216.95
 20
-5.05
 21
-19.05
  0
LINE
  8
0
 10
216.95
 11
202.95
 20
-19.05
 21
-19.05
  0
LINE
  8
0
 10
208.5
 11
208.5
 20
19.05
 21
33.05
  0
LINE
  8
0
 10
208.5
 11
222.5
 20
33.05
 21
33.05
  0
LINE
  8
0
 10
222.5
 11
222.5
 20
33.05
 21
19.05
  0
LINE
  8
0
 10
222.5
 11
208.5
 20
19.05
 21
19.05
  0
LINE
  8
0
 10
213
 11
213
 20
0
 21
14
  0
LINE
  8
0
 10
213
 11
227
 20
14
 21
14
  0
LINE
  8
0
 10
227
 11
227
 20
14
 21
0
  0
LINE
  8
0
 10
227
 11
213
 20
0
 21
0
  0
LINE
  8
0
 10
218.55
 11
218.55
 20
38.1
 21
52.1
  0
LINE
  8
0
 10
218.55
 11
232.55
 20
52.1
 21
52.1
  0
LINE
  8
0
 10
232.55
 11
232.55
 20
52.1
 21
38.1
  0
LINE
  8
0
 10
232.55
 11
218.55
 20
38.1
 21
38.1
  0
LINE
  8
0
 10
218.55
 11
218.55
 20
57.15
 21
71.15
  0
LINE
  8
0
 10
218.55
 11
232.55
 20
71.15
 21
71.15
  0
LINE
  8
0
 10
232.55
 11
232.55
 20
71.15
 21
57.15
  0
LINE
  8
0
 10
232.55
 11
218.55
 20
57.15
 21
57.15
  0
LINE
  8
0
 10
222
 11
222
 20
-19.05
 21
-5.05
  0
LINE
  8
0
 10
222
 11
236
 20
-5.05
 21
-5.05
  0
LINE
  8
0
 10
236
 11
236
 20
-5.05
 21
-19.05
  0
LINE
  8
0
 10
236
 11
222
 20
-19.05
 21
-19.05
  0
LINE
  8
0
 10
227.55
 11
227.55
 20
19.05
 21
33.05
  0
LINE
  8
0
 10
227.55
 11
241.55
 20
33.05
 21
33.05
  0
LINE
  8
0
 10
241.55
 11
241.55
 20
33.05
 21
19.05
  0
LINE
  8
0
 10
241.55
 11
227.55
 20
19.05
 21
19.05
  0
LINE
  8
0
 10
232.05
 11
232.05
 20
-38.1
 21
-24.1
  0
LINE
  8
0
 10
232.05
 11
246.05
 20
-24.1
 21
-24.1
  0
LINE
  8
0
 10
246.05
 11
246.05
 20
-24.1
 21
-38.1
  0
LINE
  8
0
 10
246.05
 11
232.05
 20
-38.1
 21
-38.1
  0
LINE
  8
0
 10
232.05
 11
232.05
 20
0
 21
14
  0
LINE
  8
0
 10
232.05
 11
246.05
 20
14
 21
14
  0
LINE
  8
0
 10
246.05
 11
246.05
 20
14
 21
0
  0
LINE
  8
0
 10
246.05
 11
232.05
 20
0
 21
0
  0
LINE
  8
0
 10
237.6
 11
237.6
 20
38.1
 21
52.1
  0
LINE
  8
0
 10
237.6
 11
251.6
 20
52.1
 21
52.1
  0
LINE
  8
0
 10
251.6
 11
251.6
 20
52.1
 21
38.1
  0
LINE
  8
0
 10
251.6
 11
237.6
 20
38.1
 21
38.1
  0
LINE
  8
0
 10
237.6
 11
237.6
 20
57.15
 21
71.15
  0
LINE
  8
0
 10
237.6
 11
251.6
 20
71.15
 21
71.15
  0
LINE
  8
0
 10
251.6
 11
251.6
 20
71.15
 21
57.15
  0
LINE
  8
0
 10
251.6
 11
237.6
 20
57.15
 21
57.15
  0
LINE
  8
0
 10
241.05
 11
241.05
 20
-19.05
 21
-5.05
  0
LINE
  8
0
 10
241.05
 11
255.05
 20
-5.05
 21
-5.05
  0
LINE
  8
0
 10
255.05
 11
255.05
 20
-5.05
 21
-19.05
  0
LINE
  8
0
 10
255.05
 11
241.05
 20
-19.05
 21
-19.05
  0
LINE
  8
0
 10
246.6
 11
246.6
 20
19.05
 21
33.05
  0
LINE
  8
0
 10
246.6
 11
260.6
 20
33.05
 21
33.05
  0
LINE
  8
0
 10
260.6
 11
260.6
 20
33.05
 21
19.05
  0
LINE
  8
0
 10
260.6
 11
246.6
 20
19.05
 21
19.05
  0
LINE
  8
0
 10
251.1
 11
251.1
 20
0
 21
14
  0
LINE
  8
0
 10
251.1
 11
265.1
 20
14
 21
14
  0
LINE
  8
0
 10
265.1
 11
265.1
 20
14
 21
0
  0
LINE
  8
0
 10
265.1
 11
251.1
 20
0
 21
0
  0
LINE
  8
0
 10
256.65
 11
256.65
 20
38.1
 21
52.1
  0
LINE
  8
0
 10
256.65
 11
270.65
 20
52.1
 21
52.1
  0
LINE
  8
0
 10
270.65
 11
270.65
 20
52.1
 21
38.1
  0
LINE
  8
0
 10
270.65
 11
256.65
 20
38.1
 21
38.1
  0
LINE
  8
0
 10
256.65
 11
256.65
 20
57.15
 21
71.15
  0
LINE
  8
0
 10
256.65
 11
270.65
 20
71.15
 21
71.15
  0
LINE
  8
0
 10
270.65
 11
270.65
 20
71.15
 21
57.15
  0
LINE
  8
0
 10
270.65
 11
256.65
 20
57.15
 21
57.15
  0
LINE
  8
0
 10
257.4
 11
257.4
 20
-38.1
 21
-24.1
  0
LINE
  8
0
 10
257.4
 11
271.4
 20
-24.1
 21
-24.1
  0
LINE
  8
0
 10
271.4
 11
271.4
 20
-24.1
 21
-38.1
  0
LINE
  8
0
 10
271.4
 11
257.4
 20
-38.1
 21
-38.1
  0
LINE
  8
0
 10
265.65
 11
265.65
 20
19.05
 21
33.05
  0
LINE
  8
0
 10
265.65
 11
279.65
 20
33.05
 21
33.05
  0
LINE
  8
0
 10
279.65
 11
279.65
 20
33.05
 21
19.05
  0
LINE
  8
0
 10
279.65
 11
265.65
 20
19.05
 21
19.05
  0
LINE
  8
0
 10
275.7
 11
275.7
 20
57.15
 21
71.15
  0
LINE
  8
0
 10
275.7
 11
289.7
 20
71.15
 21
71.15
  0
LINE
  8
0
 10
289.7
 11
289.7
 20
71.15
 21
57.15
  0
LINE
  8
0
 10
289.7
 11
275.7
 20
57.15
 21
57.15
  0
LINE
  8
0
 10
275.85
 11
275.85
 20
-19.05
 21
-5.05
  0
LINE
  8
0
 10
275.85
 11
289.85
 20
-5.05
 21
-5.05
  0
LINE
  8
0
 10
289.85
 11
289.85
 20
-5.05
 21
-19.05
  0
LINE
  8
0
 10
289.85
 11
275.85
 20
-19.05
 21
-19.05
  0
LINE
  8
0
 10
276.45
 11
276.45
 20
-38.1
 21
-24.1
  0
LINE
  8
0
 10
276.45
 11
290.45
 20
-24.1
 21
-24.1
  0
LINE
  8
0
 10
290.45
 11
290.45
 20
-24.1
 21
-38.1
  0
LINE
  8
0
 10
290.45
 11
276.45
 20
-38.1
 21
-38.1
  0
LINE
  8
0
 10
281.4
 11
281.4
 20
0
 21
14
  0
LINE
  8
0
 10
281.4
 11
295.4
 20
14
 21
14
  0
LINE
  8
0
 10
295.4
 11
295.4
 20
14
 21
0
  0
LINE
  8
0
 10
295.4
 11
281.4
 20
0
 21
0
  0
LINE
  8
0
 10
284.7
 11
284.7
 20
38.1
 21
52.1
  0
LINE
  8
0
 10
284.7
 11
298.7
 20
52.1
 21
52.1
  0
LINE
  8
0
 10
298.7
 11
298.7
 20
52.1
 21
38.1
  0
LINE
  8
0
 10
298.7
 11
284.7
 20
38.1
 21
38.1
  0
LINE
  8
0
 10
289.2
 11
289.2
 20
19.05
 21
33.05
  0
LINE
  8
0
 10
289.2
 11
303.2
 20
33.05
 21
33.05
  0
LINE
  8
0
 10
303.2
 11
303.2
 20
33.05
 21
19.05
  0
LINE
  8
0
 10
303.2
 11
289.2
 20
19.05
 21
19.05
  0
LINE
  8
0
 10
294.75
 11
294.75
 20
57.15
 21
71.15
  0
LINE
  8
0
 10
294.75
 11
308.75
 20
71.15
 21
71.15
  0
LINE
  8
0
 10
308.75
 11
308.75
 20
71.15
 21
57.15
  0
LINE
  8
0
 10
308.75
 11
294.75
 20
57.15
 21
57.15
  0
LINE
  8
0
 10
295.5
 11
295.5
 20
-38.1
 21
-24.1
  0
LINE
  8
0
 10
295.5
 11
309.5
 20
-24.1
 21
-24.1
  0
LINE
  8
0
 10
309.5
 11
309.5
 20
-24.1
 21
-38.1
  0
LINE
  8
0
 10
309.5
 11
295.5
 20
-38.1
 21
-38.1
  0
ENDSEC
  0
SECTION
  2
OBJECTS
  0
DICTIONARY
  0
ENDSEC
  0
EOF
