  0
SECTION
  2
BLOCKS
  0
ENDSEC
  0
SECTION
  2
ENTITIES
  0
LINE
  8
0
 10
7
 11
7
 20
-38.1
 21
-24.1
  0
LINE
  8
0
 10
7
 11
21
 20
-24.1
 21
-24.1
  0
LINE
  8
0
 10
21
 11
21
 20
-24.1
 21
-38.1
  0
LINE
  8
0
 10
21
 11
7
 20
-38.1
 21
-38.1
  0
LINE
  8
0
 10
7
 11
7
 20
-19.05
 21
-5.05
  0
LINE
  8
0
 10
7
 11
21
 20
-5.05
 21
-5.05
  0
LINE
  8
0
 10
21
 11
21
 20
-5.05
 21
-19.05
  0
LINE
  8
0
 10
21
 11
7
 20
-19.05
 21
-19.05
  0
LINE
  8
0
 10
7
 11
7
 20
0
 21
14
  0
LINE
  8
0
 10
7
 11
21
 20
14
 21
14
  0
LINE
  8
0
 10
21
 11
21
 20
14
 21
0
  0
LINE
  8
0
 10
21
 11
7
 20
0
 21
0
  0
LINE
  8
0
 10
7
 11
7
 20
19.05
 21
33.05
  0
LINE
  8
0
 10
7
 11
21
 20
33.05
 21
33.05
  0
LINE
  8
0
 10
21
 11
21
 20
33.05
 21
19.05
  0
LINE
  8
0
 10
21
 11
7
 20
19.05
 21
19.05
  0
LINE
  8
0
 10
7
 11
7
 20
38.1
 21
52.1
  0
LINE
  8
0
 10
7
 11
21
 20
52.1
 21
52.1
  0
LINE
  8
0
 10
21
 11
21
 20
52.1
 21
38.1
  0
LINE
  8
0
 10
21
 11
7
 20
38.1
 21
38.1
  0
LINE
  8
0
 10
7
 11
7
 20
57.15
 21
71.15
  0
LINE
  8
0
 10
7
 11
21
 20
71.15
 21
71.15
  0
LINE
  8
0
 10
21
 11
21
 20
71.15
 21
57.15
  0
LINE
  8
0
 10
21
 11
7
 20
57.15
 21
57.15
  0
LINE
  8
0
 10
26.05
 11
26.05
 20
38.1
 21
52.1
  0
LINE
  8
0
 10
26.05
 11
40.05
 20
52.1
 21
52.1
  0
LINE
  8
0
 10
40.05
 11
40.05
 20
52.1
 21
38.1
  0
LINE
  8
0
 10
40.05
 11
26.05
 20
38.1
 21
38.1
  0
LINE
  8
0
 10
26.05
 11
26.05
 20
57.15
 21
71.15
  0
LINE
  8
0
 10
26.05
 11
40.05
 20
71.15
 21
71.15
  0
LINE
  8
0
 10
40.05
 11
40.05
 20
71.15
 21
57.15
  0
LINE
  8
0
 10
40.05
 11
26.05
 20
57.15
 21
57.15
  0
LINE
  8
0
 10
27.8
 11
27.8
 20
-38.1
 21
-24.1
  0
LINE
  8
0
 10
27.8
 11
41.8
 20
-24.1
 21
-24.1
  0
LINE
  8
0
 10
41.8
 11
41.8
 20
-24.1
 21
-38.1
  0
LINE
  8
0
 10
41.8
 11
27.8
 20
-38.1
 21
-38.1
  0
LINE
  8
0
 10
29.55
 11
29.55
 20
19.05
 21
33.05
  0
LINE
  8
0
 10
29.55
 11
43.55
 20
33.05
 21
33.05
  0
LINE
  8
0
 10
43.55
 11
43.55
 20
33.05
 21
19.05
  0
LINE
  8
0
 10
43.55
 11
29.55
 20
19.05
 21
19.05
  0
LINE
  8
0
 10
31.3
 11
31.3
 20
0
 21
14
  0
LINE
  8
0
 10
31.3
 11
45.3
 20
14
 21
14
  0
LINE
  8
0
 10
45.3
 11
45.3
 20
14
 21
0
  0
LINE
  8
0
 10
45.3
 11
31.3
 20
0
 21
0
  0
LINE
  8
0
 10
34.8
 11
34.8
 20
-19.05
 21
-5.05
  0
LINE
  8
0
 10
34.8
 11
48.8
 20
-5.05
 21
-5.05
  0
LINE
  8
0
 10
48.8
 11
48.8
 20
-5.05
 21
-19.05
  0
LINE
  8
0
 10
48.8
 11
34.8
 20
-19.05
 21
-19.05
  0
LINE
  8
0
 10
45.1
 11
45.1
 20
38.1
 21
52.1
  0
LINE
  8
0
 10
45.1
 11
59.1
 20
52.1
 21
52.1
  0
LINE
  8
0
 10
59.1
 11
59.1
 20
52.1
 21
38.1
  0
LINE
  8
0
 10
59.1
 11
45.1
 20
38.1
 21
38.1
  0
LINE
  8
0
 10
45.1
 11
45.1
 20
57.15
 21
71.15
  0
LINE
  8
0
 10
45.1
 11
59.1
 20
71.15
 21
71.15
  0
LINE
  8
0
 10
59.1
 11
59.1
 20
71.15
 21
57.15
  0
LINE
  8
0
 10
59.1
 11
45.1
 20
57.15
 21
57.15
  0
LINE
  8
0
 10
50.35
 11
50.35
 20
-38.1
 21
-24.1
  0
LINE
  8
0
 10
50.35
 11
64.35
 20
-24.1
 21
-24.1
  0
LINE
  8
0
 10
64.35
 11
64.35
 20
-24.1
 21
-38.1
  0
LINE
  8
0
 10
64.35
 11
50.35
 20
-38.1
 21
-38.1
  0
LINE
  8
0
 10
52.1
 11
52.1
 20
19.05
 21
33.05
  0
LINE
  8
0
 10
52.1
 11
66.1
 20
33.05
 21
33.05
  0
LINE
  8
0
 10
66.1
 11
66.1
 20
33.05
 21
19.05
  0
LINE
  8
0
 10
66.1
 11
52.1
 20
19.05
 21
19.05
  0
LINE
  8
0
 10
55.6
 11
55.6
 20
0
 21
14
  0
LINE
  8
0
 10
55.6
 11
69.6
 20
14
 21
14
  0
LINE
  8
0
 10
69.6
 11
69.6
 20
14
 21
0
  0
LINE
  8
0
 10
69.6
 11
55.6
 20
0
 21
0
  0
LINE
  8
0
 10
62.6
 11
62.6
 20
-19.05
 21
-5.05
  0
LINE
  8
0
 10
62.6
 11
76.6
 20
-5.05
 21
-5.05
  0
LINE
  8
0
 10
76.6
 11
76.6
 20
-5.05
 21
-19.05
  0
LINE
  8
0
 10
76.6
 11
62.6
 20
-19.05
 21
-19.05
  0
LINE
  8
0
 10
64.15
 11
64.15
 20
38.1
 21
52.1
  0
LINE
  8
0
 10
64.15
 11
78.15
 20
52.1
 21
52.1
  0
LINE
  8
0
 10
78.15
 11
78.15
 20
52.1
 21
38.1
  0
LINE
  8
0
 10
78.15
 11
64.15
 20
38.1
 21
38.1
  0
LINE
  8
0
 10
64.15
 11
64.15
 20
57.15
 21
71.15
  0
LINE
  8
0
 10
64.15
 11
78.15
 20
71.15
 21
71.15
  0
LINE
  8
0
 10
78.15
 11
78.15
 20
71.15
 21
57.15
  0
LINE
  8
0
 10
78.15
 11
64.15
 20
57.15
 21
57.15
  0
LINE
  8
0
 10
71.15
 11
71.15
 20
19.05
 21
33.05
  0
LINE
  8
0
 10
71.15
 11
85.15
 20
33.05
 21
33.05
  0
LINE
  8
0
 10
85.15
 11
85.15
 20
33.05
 21
19.05
  0
LINE
  8
0
 10
85.15
 11
71.15
 20
19.05
 21
19.05
  0
LINE
  8
0
 10
72.9
 11
72.9
 20
-38.1
 21
-24.1
  0
LINE
  8
0
 10
72.9
 11
86.9
 20
-24.1
 21
-24.1
  0
LINE
  8
0
 10
86.9
 11
86.9
 20
-24.1
 21
-38.1
  0
LINE
  8
0
 10
86.9
 11
72.9
 20
-38.1
 21
-38.1
  0
LINE
  8
0
 10
74.65
 11
74.65
 20
0
 21
14
  0
LINE
  8
0
 10
74.65
 11
88.65
 20
14
 21
14
  0
LINE
  8
0
 10
88.65
 11
88.65
 20
14
 21
0
  0
LINE
  8
0
 10
88.65
 11
74.65
 20
0
 21
0
  0
LINE
  8
0
 10
81.65
 11
81.65
 20
-19.05
 21
-5.05
  0
LINE
  8
0
 10
81.65
 11
95.65
 20
-5.05
 21
-5.05
  0
LINE
  8
0
 10
95.65
 11
95.65
 20
-5.05
 21
-19.05
  0
LINE
  8
0
 10
95.65
 11
81.65
 20
-19.05
 21
-19.05
  0
LINE
  8
0
 10
83.2
 11
83.2
 20
38.1
 21
52.1
  0
LINE
  8
0
 10
83.2
 11
97.2
 20
52.1
 21
52.1
  0
LINE
  8
0
 10
97.2
 11
97.2
 20
52.1
 21
38.1
  0
LINE
  8
0
 10
97.2
 11
83.2
 20
38.1
 21
38.1
  0
LINE
  8
0
 10
83.2
 11
83.2
 20
57.15
 21
71.15
  0
LINE
  8
0
 10
83.2
 11
97.2
 20
71.15
 21
71.15
  0
LINE
  8
0
 10
97.2
 11
97.2
 20
71.15
 21
57.15
  0
LINE
  8
0
 10
97.2
 11
83.2
 20
57.15
 21
57.15
  0
LINE
  8
0
 10
90.2
 11
90.2
 20
19.05
 21
33.05
  0
LINE
  8
0
 10
90.2
 11
104.2
 20
33.05
 21
33.05
  0
LINE
  8
0
 10
104.2
 11
104.2
 20
33.05
 21
19.05
  0
LINE
  8
0
 10
104.2
 11
90.2
 20
19.05
 21
19.05
  0
LINE
  8
0
 10
93.7
 11
93.7
 20
0
 21
14
  0
LINE
  8
0
 10
93.7
 11
107.7
 20
14
 21
14
  0
LINE
  8
0
 10
107.7
 11
107.7
 20
14
 21
0
  0
LINE
  8
0
 10
107.7
 11
93.7
 20
0
 21
0
  0
LINE
  8
0
 10
95.45
 11
95.45
 20
-38.1
 21
-24.1
  0
LINE
  8
0
 10
95.45
 11
109.45
 20
-24.1
 21
-24.1
  0
LINE
  8
0
 10
109.45
 11
109.45
 20
-24.1
 21
-38.1
  0
LINE
  8
0
 10
109.45
 11
95.45
 20
-38.1
 21
-38.1
  0
LINE
  8
0
 10
100.7
 11
100.7
 20
-19.05
 21
-5.05
  0
LINE
  8
0
 10
100.7
 11
114.7
 20
-5.05
 21
-5.05
  0
LINE
  8
0
 10
114.7
 11
114.7
 20
-5.05
 21
-19.05
  0
LINE
  8
0
 10
114.7
 11
100.7
 20
-19.05
 21
-19.05
  0
LINE
  8
0
 10
102.25
 11
102.25
 20
38.1
 21
52.1
  0
LINE
  8
0
 10
102.25
 11
116.25
 20
52.1
 21
52.1
  0
LINE
  8
0
 10
116.25
 11
116.25
 20
52.1
 21
38.1
  0
LINE
  8
0
 10
116.25
 11
102.25
 20
38.1
 21
38.1
  0
LINE
  8
0
 10
102.25
 11
102.25
 20
57.15
 21
71.15
  0
LINE
  8
0
 10
102.25
 11
116.25
 20
71.15
 21
71.15
  0
LINE
  8
0
 10
116.25
 11
116.25
 20
71.15
 21
57.15
  0
LINE
  8
0
 10
116.25
 11
102.25
 20
57.15
 21
57.15
  0
LINE
  8
0
 10
109.25
 11
109.25
 20
19.05
 21
33.05
  0
LINE
  8
0
 10
109.25
 11
123.25
 20
33.05
 21
33.05
  0
LINE
  8
0
 10
123.25
 11
123.25
 20
33.05
 21
19.05
  0
LINE
  8
0
 10
123.25
 11
109.25
 20
19.05
 21
19.05
  0
LINE
  8
0
 10
112.75
 11
112.75
 20
0
 21
14
  0
LINE
  8
0
 10
112.75
 11
126.75
 20
14
 21
14
  0
LINE
  8
0
 10
126.75
 11
126.75
 20
14
 21
0
  0
LINE
  8
0
 10
126.75
 11
112.75
 20
0
 21
0
  0
LINE
  8
0
 10
119.75
 11
119.75
 20
-19.05
 21
-5.05
  0
LINE
  8
0
 10
119.75
 11
133.75
 20
-5.05
 21
-5.05
  0
LINE
  8
0
 10
133.75
 11
133.75
 20
-5.05
 21
-19.05
  0
LINE
  8
0
 10
133.75
 11
119.75
 20
-19.05
 21
-19.05
  0
LINE
  8
0
 10
121.3
 11
121.3
 20
38.1
 21
52.1
  0
LINE
  8
0
 10
121.3
 11
135.3
 20
52.1
 21
52.1
  0
LINE
  8
0
 10
135.3
 11
135.3
 20
52.1
 21
38.1
  0
LINE
  8
0
 10
135.3
 11
121.3
 20
38.1
 21
38.1
  0
LINE
  8
0
 10
121.3
 11
121.3
 20
57.15
 21
71.15
  0
LINE
  8
0
 10
121.3
 11
135.3
 20
71.15
 21
71.15
  0
LINE
  8
0
 10
135.3
 11
135.3
 20
71.15
 21
57.15
  0
LINE
  8
0
 10
135.3
 11
121.3
 20
57.15
 21
57.15
  0
LINE
  8
0
 10
128.3
 11
128.3
 20
19.05
 21
33.05
  0
LINE
  8
0
 10
128.3
 11
142.3
 20
33.05
 21
33.05
  0
LINE
  8
0
 10
142.3
 11
142.3
 20
33.05
 21
19.05
  0
LINE
  8
0
 10
142.3
 11
128.3
 20
19.05
 21
19.05
  0
LINE
  8
0
 10
131.8
 11
131.8
 20
0
 21
14
  0
LINE
  8
0
 10
131.8
 11
145.8
 20
14
 21
14
  0
LINE
  8
0
 10
145.8
 11
145.8
 20
14
 21
0
  0
LINE
  8
0
 10
145.8
 11
131.8
 20
0
 21
0
  0
LINE
  8
0
 10
138.8
 11
138.8
 20
-19.05
 21
-5.05
  0
LINE
  8
0
 10
138.8
 11
152.8
 20
-5.05
 21
-5.05
  0
LINE
  8
0
 10
152.8
 11
152.8
 20
-5.05
 21
-19.05
  0
LINE
  8
0
 10
152.8
 11
138.8
 20
-19.05
 21
-19.05
  0
LINE
  8
0
 10
140.35
 11
140.35
 20
38.1
 21
52.1
  0
LINE
  8
0
 10
140.35
 11
154.35
 20
52.1
 21
52.1
  0
LINE
  8
0
 10
154.35
 11
154.35
 20
52.1
 21
38.1
  0
LINE
  8
0
 10
154.35
 11
140.35
 20
38.1
 21
38.1
  0
LINE
  8
0
 10
140.35
 11
140.35
 20
57.15
 21
71.15
  0
LINE
  8
0
 10
140.35
 11
154.35
 20
71.15
 21
71.15
  0
LINE
  8
0
 10
154.35
 11
154.35
 20
71.15
 21
57.15
  0
LINE
  8
0
 10
154.35
 11
140.35
 20
57.15
 21
57.15
  0
LINE
  8
0
 10
147.35
 11
147.35
 20
19.05
 21
33.05
  0
LINE
  8
0
 10
147.35
 11
161.35
 20
33.05
 21
33.05
  0
LINE
  8
0
 10
161.35
 11
161.35
 20
33.05
 21
19.05
  0
LINE
  8
0
 10
161.35
 11
147.35
 20
19.05
 21
19.05
  0
LINE
  8
0
 10
150.85
 11
150.85
 20
0
 21
14
  0
LINE
  8
0
 10
150.85
 11
164.85
 20
14
 21
14
  0
LINE
  8
0
 10
164.85
 11
164.85
 20
14
 21
0
  0
LINE
  8
0
 10
164.85
 11
150.85
 20
0
 21
0
  0
LINE
  8
0
 10
153
 11
153
 20
-38.1
 21
-24.1
  0
LINE
  8
0
 10
153
 11
167
 20
-24.1
 21
-24.1
  0
LINE
  8
0
 10
167
 11
167
 20
-24.1
 21
-38.1
  0
LINE
  8
0
 10
167
 11
153
 20
-38.1
 21
-38.1
  0
LINE
  8
0
 10
157.85
 11
157.85
 20
-19.05
 21
-5.05
  0
LINE
  8
0
 10
157.85
 11
171.85
 20
-5.05
 21
-5.05
  0
LINE
  8
0
 10
171.85
 11
171.85
 20
-5.05
 21
-19.05
  0
LINE
  8
0
 10
171.85
 11
157.85
 20
-19.05
 21
-19.05
  0
LINE
  8
0
 10
159.4
 11
159.4
 20
38.1
 21
52.1
  0
LINE
  8
0
 10
159.4
 11
173.4
 20
52.1
 21
52.1
  0
LINE
  8
0
 10
173.4
 11
173.4
 20
52.1
 21
38.1
  0
LINE
  8
0
 10
173.4
 11
159.4
 20
38.1
 21
38.1
  0
LINE
  8
0
 10
159.4
 11
159.4
 20
57.15
 21
71.15
  0
LINE
  8
0
 10
159.4
 11
173.4
 20
71.15
 21
71.15
  0
LINE
  8
0
 10
173.4
 11
173.4
 20
71.15
 21
57.15
  0
LINE
  8
0
 10
173.4
 11
159.4
 20
57.15
 21
57.15
  0
LINE
  8
0
 10
166.4
 11
166.4
 20
19.05
 21
33.05
  0
LINE
  8
0
 10
166.4
 11
180.4
 20
33.05
 21
33.05
  0
LINE
  8
0
 10
180.4
 11
180.4
 20
33.05
 21
19.05
  0
LINE
  8
0
 10
180.4
 11
166.4
 20
19.05
 21
19.05
  0
LINE
  8
0
 10
169.9
 11
169.9
 20
0
 21
14
  0
LINE
  8
0
 10
169.9
 11
183.9
 20
14
 21
14
  0
LINE
  8
0
 10
183.9
 11
183.9
 20
14
 21
0
  0
LINE
  8
0
 10
183.9
 11
169.9
 20
0
 21
0
  0
LINE
  8
0
 10
176.9
 11
176.9
 20
-19.05
 21
-5.05
  0
LINE
  8
0
 10
176.9
 11
190.9
 20
-5.05
 21
-5.05
  0
LINE
  8
0
 10
190.9
 11
190.9
 20
-5.05
 21
-19.05
  0
LINE
  8
0
 10
190.9
 11
176.9
 20
-19.05
 21
-19.05
  0
LINE
  8
0
 10
178.45
 11
178.45
 20
38.1
 21
52.1
  0
LINE
  8
0
 10
178.45
 11
192.45
 20
52.1
 21
52.1
  0
LINE
  8
0
 10
192.45
 11
192.45
 20
52.1
 21
38.1
  0
LINE
  8
0
 10
192.45
 11
178.45
 20
38.1
 21
38.1
  0
LINE
  8
0
 10
178.45
 11
178.45
 20
57.15
 21
71.15
  0
LINE
  8
0
 10
178.45
 11
192.45
 20
71.15
 21
71.15
  0
LINE
  8
0
 10
192.45
 11
192.45
 20
71.15
 21
57.15
  0
LINE
  8
0
 10
192.45
 11
178.45
 20
57.15
 21
57.15
  0
LINE
  8
0
 10
185.45
 11
185.45
 20
19.05
 21
33.05
  0
LINE
  8
0
 10
185.45
 11
199.45
 20
33.05
 21
33.05
  0
LINE
  8
0
 10
199.45
 11
199.45
 20
33.05
 21
19.05
  0
LINE
  8
0
 10
199.45
 11
185.45
 20
19.05
 21
19.05
  0
LINE
  8
0
 10
188.95
 11
188.95
 20
0
 21
14
  0
LINE
  8
0
 10
188.95
 11
202.95
 20
14
 21
14
  0
LINE
  8
0
 10
202.95
 11
202.95
 20
14
 21
0
  0
LINE
  8
0
 10
202.95
 11
188.95
 20
0
 21
0
  0
LINE
  8
0
 10
195.95
 11
195.95
 20
-19.05
 21
-5.05
  0
LINE
  8
0
 10
195.95
 11
209.95
 20
-5.05
 21
-5.05
  0
LINE
  8
0
 10
209.95
 11
209.95
 20
-5.05
 21
-19.05
  0
LINE
  8
0
 10
209.95
 11
195.95
 20
-19.05
 21
-19.05
  0
LINE
  8
0
 10
197.5
 11
197.5
 20
38.1
 21
52.1
  0
LINE
  8
0
 10
197.5
 11
211.5
 20
52.1
 21
52.1
  0
LINE
  8
0
 10
211.5
 11
211.5
 20
52.1
 21
38.1
  0
LINE
  8
0
 10
211.5
 11
197.5
 20
38.1
 21
38.1
  0
LINE
  8
0
 10
197.5
 11
197.5
 20
57.15
 21
71.15
  0
LINE
  8
0
 10
197.5
 11
211.5
 20
71.15
 21
71.15
  0
LINE
  8
0
 10
211.5
 11
211.5
 20
71.15
 21
57.15
  0
LINE
  8
0
 10
211.5
 11
197.5
 20
57.15
 21
57.15
  0
LINE
  8
0
 10
204.5
 11
204.5
 20
19.05
 21
33.05
  0
LINE
  8
0
 10
204.5
 11
218.5
 20
33.05
 21
33.05
  0
LINE
  8
0
 10
218.5
 11
218.5
 20
33.05
 21
19.05
  0
LINE
  8
0
 10
218.5
 11
204.5
 20
19.05
 21
19.05
  0
LINE
  8
0
 10
208
 11
208
 20
0
 21
14
  0
LINE
  8
0
 10
208
 11
222
 20
14
 21
14
  0
LINE
  8
0
 10
222
 11
222
 20
14
 21
0
  0
LINE
  8
0
 10
222
 11
208
 20
0
 21
0
  0
LINE
  8
0
 10
210.55
 11
210.55
 20
-38.1
 21
-24.1
  0
LINE
  8
0
 10
210.55
 11
224.55
 20
-24.1
 21
-24.1
  0
LINE
  8
0
 10
224.55
 11
224.55
 20
-24.1
 21
-38.1
  0
LINE
  8
0
 10
224.55
 11
210.55
 20
-38.1
 21
-38.1
  0
LINE
  8
0
 10
215
 11
215
 20
-19.05
 21
-5.05
  0
LINE
  8
0
 10
215
 11
229
 20
-5.05
 21
-5.05
  0
LINE
  8
0
 10
229
 11
229
 20
-5.05
 21
-19.05
  0
LINE
  8
0
 10
229
 11
215
 20
-19.05
 21
-19.05
  0
LINE
  8
0
 10
216.55
 11
216.55
 20
38.1
 21
52.1
  0
LINE
  8
0
 10
216.55
 11
230.55
 20
52.1
 21
52.1
  0
LINE
  8
0
 10
230.55
 11
230.55
 20
52.1
 21
38.1
  0
LINE
  8
0
 10
230.55
 11
216.55
 20
38.1
 21
38.1
  0
LINE
  8
0
 10
216.55
 11
216.55
 20
57.15
 21
71.15
  0
LINE
  8
0
 10
216.55
 11
230.55
 20
71.15
 21
71.15
  0
LINE
  8
0
 10
230.55
 11
230.55
 20
71.15
 21
57.15
  0
LINE
  8
0
 10
230.55
 11
216.55
 20
57.15
 21
57.15
  0
LINE
  8
0
 10
223.55
 11
223.55
 20
19.05
 21
33.05
  0
LINE
  8
0
 10
223.55
 11
237.55
 20
33.05
 21
33.05
  0
LINE
  8
0
 10
237.55
 11
237.55
 20
33.05
 21
19.05
  0
LINE
  8
0
 10
237.55
 11
223.55
 20
19.05
 21
19.05
  0
LINE
  8
0
 10
227.05
 11
227.05
 20
0
 21
14
  0
LINE
  8
0
 10
227.05
 11
241.05
 20
14
 21
14
  0
LINE
  8
0
 10
241.05
 11
241.05
 20
14
 21
0
  0
LINE
  8
0
 10
241.05
 11
227.05
 20
0
 21
0
  0
LINE
  8
0
 10
233.1
 11
233.1
 20
-38.1
 21
-24.1
  0
LINE
  8
0
 10
233.1
 11
247.1
 20
-24.1
 21
-24.1
  0
LINE
  8
0
 10
247.1
 11
247.1
 20
-24.1
 21
-38.1
  0
LINE
  8
0
 10
247.1
 11
233.1
 20
-38.1
 21
-38.1
  0
LINE
  8
0
 10
234.05
 11
234.05
 20
-19.05
 21
-5.05
  0
LINE
  8
0
 10
234.05
 11
248.05
 20
-5.05
 21
-5.05
  0
LINE
  8
0
 10
248.05
 11
248.05
 20
-5.05
 21
-19.05
  0
LINE
  8
0
 10
248.05
 11
234.05
 20
-19.05
 21
-19.05
  0
LINE
  8
0
 10
235.6
 11
235.6
 20
38.1
 21
52.1
  0
LINE
  8
0
 10
235.6
 11
249.6
 20
52.1
 21
52.1
  0
LINE
  8
0
 10
249.6
 11
249.6
 20
52.1
 21
38.1
  0
LINE
  8
0
 10
249.6
 11
235.6
 20
38.1
 21
38.1
  0
LINE
  8
0
 10
235.6
 11
235.6
 20
57.15
 21
71.15
  0
LINE
  8
0
 10
235.6
 11
249.6
 20
71.15
 21
71.15
  0
LINE
  8
0
 10
249.6
 11
249.6
 20
71.15
 21
57.15
  0
LINE
  8
0
 10
249.6
 11
235.6
 20
57.15
 21
57.15
  0
LINE
  8
0
 10
242.6
 11
242.6
 20
19.05
 21
33.05
  0
LINE
  8
0
 10
242.6
 11
256.6
 20
33.05
 21
33.05
  0
LINE
  8
0
 10
256.6
 11
256.6
 20
33.05
 21
19.05
  0
LINE
  8
0
 10
256.6
 11
242.6
 20
19.05
 21
19.05
  0
LINE
  8
0
 10
246.1
 11
246.1
 20
0
 21
14
  0
LINE
  8
0
 10
246.1
 11
260.1
 20
14
 21
14
  0
LINE
  8
0
 10
260.1
 11
260.1
 20
14
 21
0
  0
LINE
  8
0
 10
260.1
 11
246.1
 20
0
 21
0
  0
LINE
  8
0
 10
254.65
 11
254.65
 20
38.1
 21
52.1
  0
LINE
  8
0
 10
254.65
 11
268.65
 20
52.1
 21
52.1
  0
LINE
  8
0
 10
268.65
 11
268.65
 20
52.1
 21
38.1
  0
LINE
  8
0
 10
268.65
 11
254.65
 20
38.1
 21
38.1
  0
LINE
  8
0
 10
254.65
 11
254.65
 20
57.15
 21
71.15
  0
LINE
  8
0
 10
254.65
 11
268.65
 20
71.15
 21
71.15
  0
LINE
  8
0
 10
268.65
 11
268.65
 20
71.15
 21
57.15
  0
LINE
  8
0
 10
268.65
 11
254.65
 20
57.15
 21
57.15
  0
LINE
  8
0
 10
255.65
 11
255.65
 20
-38.1
 21
-24.1
  0
LINE
  8
0
 10
255.65
 11
269.65
 20
-24.1
 21
-24.1
  0
LINE
  8
0
 10
269.65
 11
269.65
 20
-24.1
 21
-38.1
  0
LINE
  8
0
 10
269.65
 11
255.65
 20
-38.1
 21
-38.1
  0
LINE
  8
0
 10
261.65
 11
261.65
 20
19.05
 21
33.05
  0
LINE
  8
0
 10
261.65
 11
275.65
 20
33.05
 21
33.05
  0
LINE
  8
0
 10
275.65
 11
275.65
 20
33.05
 21
19.05
  0
LINE
  8
0
 10
275.65
 11
261.65
 20
19.05
 21
19.05
  0
LINE
  8
0
 10
265.35
 11
265.35
 20
-19.05
 21
-5.05
  0
LINE
  8
0
 10
265.35
 11
279.35
 20
-5.05
 21
-5.05
  0
LINE
  8
0
 10
279.35
 11
279.35
 20
-5.05
 21
-19.05
  0
LINE
  8
0
 10
279.35
 11
265.35
 20
-19.05
 21
-19.05
  0
LINE
  8
0
 10
273.7
 11
273.7
 20
57.15
 21
71.15
  0
LINE
  8
0
 10
273.7
 11
287.7
 20
71.15
 21
71.15
  0
LINE
  8
0
 10
287.7
 11
287.7
 20
71.15
 21
57.15
  0
LINE
  8
0
 10
287.7
 11
273.7
 20
57.15
 21
57.15
  0
LINE
  8
0
 10
273.9
 11
273.9
 20
0
 21
14
  0
LINE
  8
0
 10
273.9
 11
287.9
 20
14
 21
14
  0
LINE
  8
0
 10
287.9
 11
287.9
 20
14
 21
0
  0
LINE
  8
0
 10
287.9
 11
273.9
 20
0
 21
0
  0
LINE
  8
0
 10
278.2
 11
278.2
 20
-38.1
 21
-24.1
  0
LINE
  8
0
 10
278.2
 11
292.2
 20
-24.1
 21
-24.1
  0
LINE
  8
0
 10
292.2
 11
292.2
 20
-24.1
 21
-38.1
  0
LINE
  8
0
 10
292.2
 11
278.2
 20
-38.1
 21
-38.1
  0
LINE
  8
0
 10
280.7
 11
280.7
 20
38.1
 21
52.1
  0
LINE
  8
0
 10
280.7
 11
294.7
 20
52.1
 21
52.1
  0
LINE
  8
0
 10
294.7
 11
294.7
 20
52.1
 21
38.1
  0
LINE
  8
0
 10
294.7
 11
280.7
 20
38.1
 21
38.1
  0
LINE
  8
0
 10
284.2
 11
284.2
 20
19.05
 21
33.05
  0
LINE
  8
0
 10
284.2
 11
298.2
 20
33.05
 21
33.05
  0
LINE
  8
0
 10
298.2
 11
298.2
 20
33.05
 21
19.05
  0
LINE
  8
0
 10
298.2
 11
284.2
 20
19.05
 21
19.05
  0
ENDSEC
  0
SECTION
  2
OBJECTS
  0
DICTIONARY
  0
ENDSEC
  0
EOF
