  0
SECTION
  2
BLOCKS
  0
ENDSEC
  0
SECTION
  2
ENTITIES
  0
LINE
  8
0
 10
7
 11
7
 20
-34
 21
-20
  0
LINE
  8
0
 10
7
 11
21
 20
-20
 21
-20
  0
LINE
  8
0
 10
21
 11
21
 20
-20
 21
-34
  0
LINE
  8
0
 10
21
 11
7
 20
-34
 21
-34
  0
LINE
  8
0
 10
7
 11
7
 20
-17
 21
-3
  0
LINE
  8
0
 10
7
 11
21
 20
-3
 21
-3
  0
LINE
  8
0
 10
21
 11
21
 20
-3
 21
-17
  0
LINE
  8
0
 10
21
 11
7
 20
-17
 21
-17
  0
LINE
  8
0
 10
7
 11
7
 20
0
 21
14
  0
LINE
  8
0
 10
7
 11
21
 20
14
 21
14
  0
LINE
  8
0
 10
21
 11
21
 20
14
 21
0
  0
LINE
  8
0
 10
21
 11
7
 20
0
 21
0
  0
LINE
  8
0
 10
7
 11
7
 20
17
 21
31
  0
LINE
  8
0
 10
7
 11
21
 20
31
 21
31
  0
LINE
  8
0
 10
21
 11
21
 20
31
 21
17
  0
LINE
  8
0
 10
21
 11
7
 20
17
 21
17
  0
LINE
  8
0
 10
7
 11
7
 20
34
 21
48
  0
LINE
  8
0
 10
7
 11
21
 20
48
 21
48
  0
LINE
  8
0
 10
21
 11
21
 20
48
 21
34
  0
LINE
  8
0
 10
21
 11
7
 20
34
 21
34
  0
LINE
  8
0
 10
7
 11
7
 20
51
 21
65
  0
LINE
  8
0
 10
7
 11
21
 20
65
 21
65
  0
LINE
  8
0
 10
21
 11
21
 20
65
 21
51
  0
LINE
  8
0
 10
21
 11
7
 20
51
 21
51
  0
LINE
  8
0
 10
26
 11
26
 20
34
 21
48
  0
LINE
  8
0
 10
26
 11
40
 20
48
 21
48
  0
LINE
  8
0
 10
40
 11
40
 20
48
 21
34
  0
LINE
  8
0
 10
40
 11
26
 20
34
 21
34
  0
LINE
  8
0
 10
26
 11
26
 20
51
 21
65
  0
LINE
  8
0
 10
26
 11
40
 20
65
 21
65
  0
LINE
  8
0
 10
40
 11
40
 20
65
 21
51
  0
LINE
  8
0
 10
40
 11
26
 20
51
 21
51
  0
LINE
  8
0
 10
27.75
 11
27.75
 20
-34
 21
-20
  0
LINE
  8
0
 10
27.75
 11
41.75
 20
-20
 21
-20
  0
LINE
  8
0
 10
41.75
 11
41.75
 20
-20
 21
-34
  0
LINE
  8
0
 10
41.75
 11
27.75
 20
-34
 21
-34
  0
LINE
  8
0
 10
29.5
 11
29.5
 20
17
 21
31
  0
LINE
  8
0
 10
29.5
 11
43.5
 20
31
 21
31
  0
LINE
  8
0
 10
43.5
 11
43.5
 20
31
 21
17
  0
LINE
  8
0
 10
43.5
 11
29.5
 20
17
 21
17
  0
LINE
  8
0
 10
31.25
 11
31.25
 20
0
 21
14
  0
LINE
  8
0
 10
31.25
 11
45.25
 20
14
 21
14
  0
LINE
  8
0
 10
45.25
 11
45.25
 20
14
 21
0
  0
LINE
  8
0
 10
45.25
 11
31.25
 20
0
 21
0
  0
LINE
  8
0
 10
34.75
 11
34.75
 20
-17
 21
-3
  0
LINE
  8
0
 10
34.75
 11
48.75
 20
-3
 21
-3
  0
LINE
  8
0
 10
48.75
 11
48.75
 20
-3
 21
-17
  0
LINE
  8
0
 10
48.75
 11
34.75
 20
-17
 21
-17
  0
LINE
  8
0
 10
45
 11
45
 20
34
 21
48
  0
LINE
  8
0
 10
45
 11
59
 20
48
 21
48
  0
LINE
  8
0
 10
59
 11
59
 20
48
 21
34
  0
LINE
  8
0
 10
59
 11
45
 20
34
 21
34
  0
LINE
  8
0
 10
45
 11
45
 20
51
 21
65
  0
LINE
  8
0
 10
45
 11
59
 20
65
 21
65
  0
LINE
  8
0
 10
59
 11
59
 20
65
 21
51
  0
LINE
  8
0
 10
59
 11
45
 20
51
 21
51
  0
LINE
  8
0
 10
50.25
 11
50.25
 20
-34
 21
-20
  0
LINE
  8
0
 10
50.25
 11
64.25
 20
-20
 21
-20
  0
LINE
  8
0
 10
64.25
 11
64.25
 20
-20
 21
-34
  0
LINE
  8
0
 10
64.25
 11
50.25
 20
-34
 21
-34
  0
LINE
  8
0
 10
52
 11
52
 20
17
 21
31
  0
LINE
  8
0
 10
52
 11
66
 20
31
 21
31
  0
LINE
  8
0
 10
66
 11
66
 20
31
 21
17
  0
LINE
  8
0
 10
66
 11
52
 20
17
 21
17
  0
LINE
  8
0
 10
55.5
 11
55.5
 20
0
 21
14
  0
LINE
  8
0
 10
55.5
 11
69.5
 20
14
 21
14
  0
LINE
  8
0
 10
69.5
 11
69.5
 20
14
 21
0
  0
LINE
  8
0
 10
69.5
 11
55.5
 20
0
 21
0
  0
LINE
  8
0
 10
62.5
 11
62.5
 20
-17
 21
-3
  0
LINE
  8
0
 10
62.5
 11
76.5
 20
-3
 21
-3
  0
LINE
  8
0
 10
76.5
 11
76.5
 20
-3
 21
-17
  0
LINE
  8
0
 10
76.5
 11
62.5
 20
-17
 21
-17
  0
LINE
  8
0
 10
64
 11
64
 20
34
 21
48
  0
LINE
  8
0
 10
64
 11
78
 20
48
 21
48
  0
LINE
  8
0
 10
78
 11
78
 20
48
 21
34
  0
LINE
  8
0
 10
78
 11
64
 20
34
 21
34
  0
LINE
  8
0
 10
64
 11
64
 20
51
 21
65
  0
LINE
  8
0
 10
64
 11
78
 20
65
 21
65
  0
LINE
  8
0
 10
78
 11
78
 20
65
 21
51
  0
LINE
  8
0
 10
78
 11
64
 20
51
 21
51
  0
LINE
  8
0
 10
71
 11
71
 20
17
 21
31
  0
LINE
  8
0
 10
71
 11
85
 20
31
 21
31
  0
LINE
  8
0
 10
85
 11
85
 20
31
 21
17
  0
LINE
  8
0
 10
85
 11
71
 20
17
 21
17
  0
LINE
  8
0
 10
72.75
 11
72.75
 20
-34
 21
-20
  0
LINE
  8
0
 10
72.75
 11
86.75
 20
-20
 21
-20
  0
LINE
  8
0
 10
86.75
 11
86.75
 20
-20
 21
-34
  0
LINE
  8
0
 10
86.75
 11
72.75
 20
-34
 21
-34
  0
LINE
  8
0
 10
74.5
 11
74.5
 20
0
 21
14
  0
LINE
  8
0
 10
74.5
 11
88.5
 20
14
 21
14
  0
LINE
  8
0
 10
88.5
 11
88.5
 20
14
 21
0
  0
LINE
  8
0
 10
88.5
 11
74.5
 20
0
 21
0
  0
LINE
  8
0
 10
81.5
 11
81.5
 20
-17
 21
-3
  0
LINE
  8
0
 10
81.5
 11
95.5
 20
-3
 21
-3
  0
LINE
  8
0
 10
95.5
 11
95.5
 20
-3
 21
-17
  0
LINE
  8
0
 10
95.5
 11
81.5
 20
-17
 21
-17
  0
LINE
  8
0
 10
83
 11
83
 20
34
 21
48
  0
LINE
  8
0
 10
83
 11
97
 20
48
 21
48
  0
LINE
  8
0
 10
97
 11
97
 20
48
 21
34
  0
LINE
  8
0
 10
97
 11
83
 20
34
 21
34
  0
LINE
  8
0
 10
83
 11
83
 20
51
 21
65
  0
LINE
  8
0
 10
83
 11
97
 20
65
 21
65
  0
LINE
  8
0
 10
97
 11
97
 20
65
 21
51
  0
LINE
  8
0
 10
97
 11
83
 20
51
 21
51
  0
LINE
  8
0
 10
90
 11
90
 20
17
 21
31
  0
LINE
  8
0
 10
90
 11
104
 20
31
 21
31
  0
LINE
  8
0
 10
104
 11
104
 20
31
 21
17
  0
LINE
  8
0
 10
104
 11
90
 20
17
 21
17
  0
LINE
  8
0
 10
93.5
 11
93.5
 20
0
 21
14
  0
LINE
  8
0
 10
93.5
 11
107.5
 20
14
 21
14
  0
LINE
  8
0
 10
107.5
 11
107.5
 20
14
 21
0
  0
LINE
  8
0
 10
107.5
 11
93.5
 20
0
 21
0
  0
LINE
  8
0
 10
95.25
 11
95.25
 20
-34
 21
-20
  0
LINE
  8
0
 10
95.25
 11
109.25
 20
-20
 21
-20
  0
LINE
  8
0
 10
109.25
 11
109.25
 20
-20
 21
-34
  0
LINE
  8
0
 10
109.25
 11
95.25
 20
-34
 21
-34
  0
LINE
  8
0
 10
100.5
 11
100.5
 20
-17
 21
-3
  0
LINE
  8
0
 10
100.5
 11
114.5
 20
-3
 21
-3
  0
LINE
  8
0
 10
114.5
 11
114.5
 20
-3
 21
-17
  0
LINE
  8
0
 10
114.5
 11
100.5
 20
-17
 21
-17
  0
LINE
  8
0
 10
102
 11
102
 20
34
 21
48
  0
LINE
  8
0
 10
102
 11
116
 20
48
 21
48
  0
LINE
  8
0
 10
116
 11
116
 20
48
 21
34
  0
LINE
  8
0
 10
116
 11
102
 20
34
 21
34
  0
LINE
  8
0
 10
102
 11
102
 20
51
 21
65
  0
LINE
  8
0
 10
102
 11
116
 20
65
 21
65
  0
LINE
  8
0
 10
116
 11
116
 20
65
 21
51
  0
LINE
  8
0
 10
116
 11
102
 20
51
 21
51
  0
LINE
  8
0
 10
109
 11
109
 20
17
 21
31
  0
LINE
  8
0
 10
109
 11
123
 20
31
 21
31
  0
LINE
  8
0
 10
123
 11
123
 20
31
 21
17
  0
LINE
  8
0
 10
123
 11
109
 20
17
 21
17
  0
LINE
  8
0
 10
112.5
 11
112.5
 20
0
 21
14
  0
LINE
  8
0
 10
112.5
 11
126.5
 20
14
 21
14
  0
LINE
  8
0
 10
126.5
 11
126.5
 20
14
 21
0
  0
LINE
  8
0
 10
126.5
 11
112.5
 20
0
 21
0
  0
LINE
  8
0
 10
119.5
 11
119.5
 20
-17
 21
-3
  0
LINE
  8
0
 10
119.5
 11
133.5
 20
-3
 21
-3
  0
LINE
  8
0
 10
133.5
 11
133.5
 20
-3
 21
-17
  0
LINE
  8
0
 10
133.5
 11
119.5
 20
-17
 21
-17
  0
LINE
  8
0
 10
121
 11
121
 20
34
 21
48
  0
LINE
  8
0
 10
121
 11
135
 20
48
 21
48
  0
LINE
  8
0
 10
135
 11
135
 20
48
 21
34
  0
LINE
  8
0
 10
135
 11
121
 20
34
 21
34
  0
LINE
  8
0
 10
121
 11
121
 20
51
 21
65
  0
LINE
  8
0
 10
121
 11
135
 20
65
 21
65
  0
LINE
  8
0
 10
135
 11
135
 20
65
 21
51
  0
LINE
  8
0
 10
135
 11
121
 20
51
 21
51
  0
LINE
  8
0
 10
128
 11
128
 20
17
 21
31
  0
LINE
  8
0
 10
128
 11
142
 20
31
 21
31
  0
LINE
  8
0
 10
142
 11
142
 20
31
 21
17
  0
LINE
  8
0
 10
142
 11
128
 20
17
 21
17
  0
LINE
  8
0
 10
131.5
 11
131.5
 20
0
 21
14
  0
LINE
  8
0
 10
131.5
 11
145.5
 20
14
 21
14
  0
LINE
  8
0
 10
145.5
 11
145.5
 20
14
 21
0
  0
LINE
  8
0
 10
145.5
 11
131.5
 20
0
 21
0
  0
LINE
  8
0
 10
138.5
 11
138.5
 20
-17
 21
-3
  0
LINE
  8
0
 10
138.5
 11
152.5
 20
-3
 21
-3
  0
LINE
  8
0
 10
152.5
 11
152.5
 20
-3
 21
-17
  0
LINE
  8
0
 10
152.5
 11
138.5
 20
-17
 21
-17
  0
LINE
  8
0
 10
140
 11
140
 20
34
 21
48
  0
LINE
  8
0
 10
140
 11
154
 20
48
 21
48
  0
LINE
  8
0
 10
154
 11
154
 20
48
 21
34
  0
LINE
  8
0
 10
154
 11
140
 20
34
 21
34
  0
LINE
  8
0
 10
140
 11
140
 20
51
 21
65
  0
LINE
  8
0
 10
140
 11
154
 20
65
 21
65
  0
LINE
  8
0
 10
154
 11
154
 20
65
 21
51
  0
LINE
  8
0
 10
154
 11
140
 20
51
 21
51
  0
LINE
  8
0
 10
147
 11
147
 20
17
 21
31
  0
LINE
  8
0
 10
147
 11
161
 20
31
 21
31
  0
LINE
  8
0
 10
161
 11
161
 20
31
 21
17
  0
LINE
  8
0
 10
161
 11
147
 20
17
 21
17
  0
LINE
  8
0
 10
150.5
 11
150.5
 20
0
 21
14
  0
LINE
  8
0
 10
150.5
 11
164.5
 20
14
 21
14
  0
LINE
  8
0
 10
164.5
 11
164.5
 20
14
 21
0
  0
LINE
  8
0
 10
164.5
 11
150.5
 20
0
 21
0
  0
LINE
  8
0
 10
152.75
 11
152.75
 20
-34
 21
-20
  0
LINE
  8
0
 10
152.75
 11
166.75
 20
-20
 21
-20
  0
LINE
  8
0
 10
166.75
 11
166.75
 20
-20
 21
-34
  0
LINE
  8
0
 10
166.75
 11
152.75
 20
-34
 21
-34
  0
LINE
  8
0
 10
157.5
 11
157.5
 20
-17
 21
-3
  0
LINE
  8
0
 10
157.5
 11
171.5
 20
-3
 21
-3
  0
LINE
  8
0
 10
171.5
 11
171.5
 20
-3
 21
-17
  0
LINE
  8
0
 10
171.5
 11
157.5
 20
-17
 21
-17
  0
LINE
  8
0
 10
159
 11
159
 20
34
 21
48
  0
LINE
  8
0
 10
159
 11
173
 20
48
 21
48
  0
LINE
  8
0
 10
173
 11
173
 20
48
 21
34
  0
LINE
  8
0
 10
173
 11
159
 20
34
 21
34
  0
LINE
  8
0
 10
159
 11
159
 20
51
 21
65
  0
LINE
  8
0
 10
159
 11
173
 20
65
 21
65
  0
LINE
  8
0
 10
173
 11
173
 20
65
 21
51
  0
LINE
  8
0
 10
173
 11
159
 20
51
 21
51
  0
LINE
  8
0
 10
166
 11
166
 20
17
 21
31
  0
LINE
  8
0
 10
166
 11
180
 20
31
 21
31
  0
LINE
  8
0
 10
180
 11
180
 20
31
 21
17
  0
LINE
  8
0
 10
180
 11
166
 20
17
 21
17
  0
LINE
  8
0
 10
169.5
 11
169.5
 20
0
 21
14
  0
LINE
  8
0
 10
169.5
 11
183.5
 20
14
 21
14
  0
LINE
  8
0
 10
183.5
 11
183.5
 20
14
 21
0
  0
LINE
  8
0
 10
183.5
 11
169.5
 20
0
 21
0
  0
LINE
  8
0
 10
176.5
 11
176.5
 20
-17
 21
-3
  0
LINE
  8
0
 10
176.5
 11
190.5
 20
-3
 21
-3
  0
LINE
  8
0
 10
190.5
 11
190.5
 20
-3
 21
-17
  0
LINE
  8
0
 10
190.5
 11
176.5
 20
-17
 21
-17
  0
LINE
  8
0
 10
178
 11
178
 20
34
 21
48
  0
LINE
  8
0
 10
178
 11
192
 20
48
 21
48
  0
LINE
  8
0
 10
192
 11
192
 20
48
 21
34
  0
LINE
  8
0
 10
192
 11
178
 20
34
 21
34
  0
LINE
  8
0
 10
178
 11
178
 20
51
 21
65
  0
LINE
  8
0
 10
178
 11
192
 20
65
 21
65
  0
LINE
  8
0
 10
192
 11
192
 20
65
 21
51
  0
LINE
  8
0
 10
192
 11
178
 20
51
 21
51
  0
LINE
  8
0
 10
185
 11
185
 20
17
 21
31
  0
LINE
  8
0
 10
185
 11
199
 20
31
 21
31
  0
LINE
  8
0
 10
199
 11
199
 20
31
 21
17
  0
LINE
  8
0
 10
199
 11
185
 20
17
 21
17
  0
LINE
  8
0
 10
188.5
 11
188.5
 20
0
 21
14
  0
LINE
  8
0
 10
188.5
 11
202.5
 20
14
 21
14
  0
LINE
  8
0
 10
202.5
 11
202.5
 20
14
 21
0
  0
LINE
  8
0
 10
202.5
 11
188.5
 20
0
 21
0
  0
LINE
  8
0
 10
195.5
 11
195.5
 20
-17
 21
-3
  0
LINE
  8
0
 10
195.5
 11
209.5
 20
-3
 21
-3
  0
LINE
  8
0
 10
209.5
 11
209.5
 20
-3
 21
-17
  0
LINE
  8
0
 10
209.5
 11
195.5
 20
-17
 21
-17
  0
LINE
  8
0
 10
197
 11
197
 20
34
 21
48
  0
LINE
  8
0
 10
197
 11
211
 20
48
 21
48
  0
LINE
  8
0
 10
211
 11
211
 20
48
 21
34
  0
LINE
  8
0
 10
211
 11
197
 20
34
 21
34
  0
LINE
  8
0
 10
197
 11
197
 20
51
 21
65
  0
LINE
  8
0
 10
197
 11
211
 20
65
 21
65
  0
LINE
  8
0
 10
211
 11
211
 20
65
 21
51
  0
LINE
  8
0
 10
211
 11
197
 20
51
 21
51
  0
LINE
  8
0
 10
204
 11
204
 20
17
 21
31
  0
LINE
  8
0
 10
204
 11
218
 20
31
 21
31
  0
LINE
  8
0
 10
218
 11
218
 20
31
 21
17
  0
LINE
  8
0
 10
218
 11
204
 20
17
 21
17
  0
LINE
  8
0
 10
207.5
 11
207.5
 20
0
 21
14
  0
LINE
  8
0
 10
207.5
 11
221.5
 20
14
 21
14
  0
LINE
  8
0
 10
221.5
 11
221.5
 20
14
 21
0
  0
LINE
  8
0
 10
221.5
 11
207.5
 20
0
 21
0
  0
LINE
  8
0
 10
210.25
 11
210.25
 20
-34
 21
-20
  0
LINE
  8
0
 10
210.25
 11
224.25
 20
-20
 21
-20
  0
LINE
  8
0
 10
224.25
 11
224.25
 20
-20
 21
-34
  0
LINE
  8
0
 10
224.25
 11
210.25
 20
-34
 21
-34
  0
LINE
  8
0
 10
214.5
 11
214.5
 20
-17
 21
-3
  0
LINE
  8
0
 10
214.5
 11
228.5
 20
-3
 21
-3
  0
LINE
  8
0
 10
228.5
 11
228.5
 20
-3
 21
-17
  0
LINE
  8
0
 10
228.5
 11
214.5
 20
-17
 21
-17
  0
LINE
  8
0
 10
216
 11
216
 20
34
 21
48
  0
LINE
  8
0
 10
216
 11
230
 20
48
 21
48
  0
LINE
  8
0
 10
230
 11
230
 20
48
 21
34
  0
LINE
  8
0
 10
230
 11
216
 20
34
 21
34
  0
LINE
  8
0
 10
216
 11
216
 20
51
 21
65
  0
LINE
  8
0
 10
216
 11
230
 20
65
 21
65
  0
LINE
  8
0
 10
230
 11
230
 20
65
 21
51
  0
LINE
  8
0
 10
230
 11
216
 20
51
 21
51
  0
LINE
  8
0
 10
223
 11
223
 20
17
 21
31
  0
LINE
  8
0
 10
223
 11
237
 20
31
 21
31
  0
LINE
  8
0
 10
237
 11
237
 20
31
 21
17
  0
LINE
  8
0
 10
237
 11
223
 20
17
 21
17
  0
LINE
  8
0
 10
226.5
 11
226.5
 20
0
 21
14
  0
LINE
  8
0
 10
226.5
 11
240.5
 20
14
 21
14
  0
LINE
  8
0
 10
240.5
 11
240.5
 20
14
 21
0
  0
LINE
  8
0
 10
240.5
 11
226.5
 20
0
 21
0
  0
LINE
  8
0
 10
232.75
 11
232.75
 20
-34
 21
-20
  0
LINE
  8
0
 10
232.75
 11
246.75
 20
-20
 21
-20
  0
LINE
  8
0
 10
246.75
 11
246.75
 20
-20
 21
-34
  0
LINE
  8
0
 10
246.75
 11
232.75
 20
-34
 21
-34
  0
LINE
  8
0
 10
233.5
 11
233.5
 20
-17
 21
-3
  0
LINE
  8
0
 10
233.5
 11
247.5
 20
-3
 21
-3
  0
LINE
  8
0
 10
247.5
 11
247.5
 20
-3
 21
-17
  0
LINE
  8
0
 10
247.5
 11
233.5
 20
-17
 21
-17
  0
LINE
  8
0
 10
235
 11
235
 20
34
 21
48
  0
LINE
  8
0
 10
235
 11
249
 20
48
 21
48
  0
LINE
  8
0
 10
249
 11
249
 20
48
 21
34
  0
LINE
  8
0
 10
249
 11
235
 20
34
 21
34
  0
LINE
  8
0
 10
235
 11
235
 20
51
 21
65
  0
LINE
  8
0
 10
235
 11
249
 20
65
 21
65
  0
LINE
  8
0
 10
249
 11
249
 20
65
 21
51
  0
LINE
  8
0
 10
249
 11
235
 20
51
 21
51
  0
LINE
  8
0
 10
242
 11
242
 20
17
 21
31
  0
LINE
  8
0
 10
242
 11
256
 20
31
 21
31
  0
LINE
  8
0
 10
256
 11
256
 20
31
 21
17
  0
LINE
  8
0
 10
256
 11
242
 20
17
 21
17
  0
LINE
  8
0
 10
245.5
 11
245.5
 20
0
 21
14
  0
LINE
  8
0
 10
245.5
 11
259.5
 20
14
 21
14
  0
LINE
  8
0
 10
259.5
 11
259.5
 20
14
 21
0
  0
LINE
  8
0
 10
259.5
 11
245.5
 20
0
 21
0
  0
LINE
  8
0
 10
254
 11
254
 20
34
 21
48
  0
LINE
  8
0
 10
254
 11
268
 20
48
 21
48
  0
LINE
  8
0
 10
268
 11
268
 20
48
 21
34
  0
LINE
  8
0
 10
268
 11
254
 20
34
 21
34
  0
LINE
  8
0
 10
254
 11
254
 20
51
 21
65
  0
LINE
  8
0
 10
254
 11
268
 20
65
 21
65
  0
LINE
  8
0
 10
268
 11
268
 20
65
 21
51
  0
LINE
  8
0
 10
268
 11
254
 20
51
 21
51
  0
LINE
  8
0
 10
255.25
 11
255.25
 20
-34
 21
-20
  0
LINE
  8
0
 10
255.25
 11
269.25
 20
-20
 21
-20
  0
LINE
  8
0
 10
269.25
 11
269.25
 20
-20
 21
-34
  0
LINE
  8
0
 10
269.25
 11
255.25
 20
-34
 21
-34
  0
LINE
  8
0
 10
261
 11
261
 20
17
 21
31
  0
LINE
  8
0
 10
261
 11
275
 20
31
 21
31
  0
LINE
  8
0
 10
275
 11
275
 20
31
 21
17
  0
LINE
  8
0
 10
275
 11
261
 20
17
 21
17
  0
LINE
  8
0
 10
264.75
 11
264.75
 20
-17
 21
-3
  0
LINE
  8
0
 10
264.75
 11
278.75
 20
-3
 21
-3
  0
LINE
  8
0
 10
278.75
 11
278.75
 20
-3
 21
-17
  0
LINE
  8
0
 10
278.75
 11
264.75
 20
-17
 21
-17
  0
LINE
  8
0
 10
273
 11
273
 20
51
 21
65
  0
LINE
  8
0
 10
273
 11
287
 20
65
 21
65
  0
LINE
  8
0
 10
287
 11
287
 20
65
 21
51
  0
LINE
  8
0
 10
287
 11
273
 20
51
 21
51
  0
LINE
  8
0
 10
273.25
 11
273.25
 20
0
 21
14
  0
LINE
  8
0
 10
273.25
 11
287.25
 20
14
 21
14
  0
LINE
  8
0
 10
287.25
 11
287.25
 20
14
 21
0
  0
LINE
  8
0
 10
287.25
 11
273.25
 20
0
 21
0
  0
LINE
  8
0
 10
277.75
 11
277.75
 20
-34
 21
-20
  0
LINE
  8
0
 10
277.75
 11
291.75
 20
-20
 21
-20
  0
LINE
  8
0
 10
291.75
 11
291.75
 20
-20
 21
-34
  0
LINE
  8
0
 10
291.75
 11
277.75
 20
-34
 21
-34
  0
LINE
  8
0
 10
280
 11
280
 20
34
 21
48
  0
LINE
  8
0
 10
280
 11
294
 20
48
 21
48
  0
LINE
  8
0
 10
294
 11
294
 20
48
 21
34
  0
LINE
  8
0
 10
294
 11
280
 20
34
 21
34
  0
LINE
  8
0
 10
283.5
 11
283.5
 20
17
 21
31
  0
LINE
  8
0
 10
283.5
 11
297.5
 20
31
 21
31
  0
LINE
  8
0
 10
297.5
 11
297.5
 20
31
 21
17
  0
LINE
  8
0
 10
297.5
 11
283.5
 20
17
 21
17
  0
ENDSEC
  0
SECTION
  2
OBJECTS
  0
DICTIONARY
  0
ENDSEC
  0
EOF
