  0
SECTION
  2
BLOCKS
  0
ENDSEC
  0
SECTION
  2
ENTITIES
  0
LINE
  8
0
 10
11
 11
11
 20
-34
 21
-20
  0
LINE
  8
0
 10
11
 11
25
 20
-20
 21
-20
  0
LINE
  8
0
 10
25
 11
25
 20
-20
 21
-34
  0
LINE
  8
0
 10
25
 11
11
 20
-34
 21
-34
  0
LINE
  8
0
 10
11
 11
11
 20
-17
 21
-3
  0
LINE
  8
0
 10
11
 11
25
 20
-3
 21
-3
  0
LINE
  8
0
 10
25
 11
25
 20
-3
 21
-17
  0
LINE
  8
0
 10
25
 11
11
 20
-17
 21
-17
  0
LINE
  8
0
 10
11
 11
11
 20
0
 21
14
  0
LINE
  8
0
 10
11
 11
25
 20
14
 21
14
  0
LINE
  8
0
 10
25
 11
25
 20
14
 21
0
  0
LINE
  8
0
 10
25
 11
11
 20
0
 21
0
  0
LINE
  8
0
 10
11
 11
11
 20
17
 21
31
  0
LINE
  8
0
 10
11
 11
25
 20
31
 21
31
  0
LINE
  8
0
 10
25
 11
25
 20
31
 21
17
  0
LINE
  8
0
 10
25
 11
11
 20
17
 21
17
  0
LINE
  8
0
 10
11
 11
11
 20
34
 21
48
  0
LINE
  8
0
 10
11
 11
25
 20
48
 21
48
  0
LINE
  8
0
 10
25
 11
25
 20
48
 21
34
  0
LINE
  8
0
 10
25
 11
11
 20
34
 21
34
  0
LINE
  8
0
 10
11
 11
11
 20
51
 21
65
  0
LINE
  8
0
 10
11
 11
25
 20
65
 21
65
  0
LINE
  8
0
 10
25
 11
25
 20
65
 21
51
  0
LINE
  8
0
 10
25
 11
11
 20
51
 21
51
  0
LINE
  8
0
 10
30.05
 11
30.05
 20
34
 21
48
  0
LINE
  8
0
 10
30.05
 11
44.05
 20
48
 21
48
  0
LINE
  8
0
 10
44.05
 11
44.05
 20
48
 21
34
  0
LINE
  8
0
 10
44.05
 11
30.05
 20
34
 21
34
  0
LINE
  8
0
 10
30.05
 11
30.05
 20
51
 21
65
  0
LINE
  8
0
 10
30.05
 11
44.05
 20
65
 21
65
  0
LINE
  8
0
 10
44.05
 11
44.05
 20
65
 21
51
  0
LINE
  8
0
 10
44.05
 11
30.05
 20
51
 21
51
  0
LINE
  8
0
 10
32.8
 11
32.8
 20
-34
 21
-20
  0
LINE
  8
0
 10
32.8
 11
46.8
 20
-20
 21
-20
  0
LINE
  8
0
 10
46.8
 11
46.8
 20
-20
 21
-34
  0
LINE
  8
0
 10
46.8
 11
32.8
 20
-34
 21
-34
  0
LINE
  8
0
 10
35.55
 11
35.55
 20
17
 21
31
  0
LINE
  8
0
 10
35.55
 11
49.55
 20
31
 21
31
  0
LINE
  8
0
 10
49.55
 11
49.55
 20
31
 21
17
  0
LINE
  8
0
 10
49.55
 11
35.55
 20
17
 21
17
  0
LINE
  8
0
 10
38.3
 11
38.3
 20
0
 21
14
  0
LINE
  8
0
 10
38.3
 11
52.3
 20
14
 21
14
  0
LINE
  8
0
 10
52.3
 11
52.3
 20
14
 21
0
  0
LINE
  8
0
 10
52.3
 11
38.3
 20
0
 21
0
  0
LINE
  8
0
 10
43.8
 11
43.8
 20
-17
 21
-3
  0
LINE
  8
0
 10
43.8
 11
57.8
 20
-3
 21
-3
  0
LINE
  8
0
 10
57.8
 11
57.8
 20
-3
 21
-17
  0
LINE
  8
0
 10
57.8
 11
43.8
 20
-17
 21
-17
  0
LINE
  8
0
 10
49.1
 11
49.1
 20
34
 21
48
  0
LINE
  8
0
 10
49.1
 11
63.1
 20
48
 21
48
  0
LINE
  8
0
 10
63.1
 11
63.1
 20
48
 21
34
  0
LINE
  8
0
 10
63.1
 11
49.1
 20
34
 21
34
  0
LINE
  8
0
 10
49.1
 11
49.1
 20
51
 21
65
  0
LINE
  8
0
 10
49.1
 11
63.1
 20
65
 21
65
  0
LINE
  8
0
 10
63.1
 11
63.1
 20
65
 21
51
  0
LINE
  8
0
 10
63.1
 11
49.1
 20
51
 21
51
  0
LINE
  8
0
 10
56.35
 11
56.35
 20
-34
 21
-20
  0
LINE
  8
0
 10
56.35
 11
70.35
 20
-20
 21
-20
  0
LINE
  8
0
 10
70.35
 11
70.35
 20
-20
 21
-34
  0
LINE
  8
0
 10
70.35
 11
56.35
 20
-34
 21
-34
  0
LINE
  8
0
 10
58.1
 11
58.1
 20
17
 21
31
  0
LINE
  8
0
 10
58.1
 11
72.1
 20
31
 21
31
  0
LINE
  8
0
 10
72.1
 11
72.1
 20
31
 21
17
  0
LINE
  8
0
 10
72.1
 11
58.1
 20
17
 21
17
  0
LINE
  8
0
 10
62.6
 11
62.6
 20
0
 21
14
  0
LINE
  8
0
 10
62.6
 11
76.6
 20
14
 21
14
  0
LINE
  8
0
 10
76.6
 11
76.6
 20
14
 21
0
  0
LINE
  8
0
 10
76.6
 11
62.6
 20
0
 21
0
  0
LINE
  8
0
 10
68.15
 11
68.15
 20
34
 21
48
  0
LINE
  8
0
 10
68.15
 11
82.15
 20
48
 21
48
  0
LINE
  8
0
 10
82.15
 11
82.15
 20
48
 21
34
  0
LINE
  8
0
 10
82.15
 11
68.15
 20
34
 21
34
  0
LINE
  8
0
 10
68.15
 11
68.15
 20
51
 21
65
  0
LINE
  8
0
 10
68.15
 11
82.15
 20
65
 21
65
  0
LINE
  8
0
 10
82.15
 11
82.15
 20
65
 21
51
  0
LINE
  8
0
 10
82.15
 11
68.15
 20
51
 21
51
  0
LINE
  8
0
 10
71.6
 11
71.6
 20
-17
 21
-3
  0
LINE
  8
0
 10
71.6
 11
85.6
 20
-3
 21
-3
  0
LINE
  8
0
 10
85.6
 11
85.6
 20
-3
 21
-17
  0
LINE
  8
0
 10
85.6
 11
71.6
 20
-17
 21
-17
  0
LINE
  8
0
 10
77.15
 11
77.15
 20
17
 21
31
  0
LINE
  8
0
 10
77.15
 11
91.15
 20
31
 21
31
  0
LINE
  8
0
 10
91.15
 11
91.15
 20
31
 21
17
  0
LINE
  8
0
 10
91.15
 11
77.15
 20
17
 21
17
  0
LINE
  8
0
 10
79.9
 11
79.9
 20
-34
 21
-20
  0
LINE
  8
0
 10
79.9
 11
93.9
 20
-20
 21
-20
  0
LINE
  8
0
 10
93.9
 11
93.9
 20
-20
 21
-34
  0
LINE
  8
0
 10
93.9
 11
79.9
 20
-34
 21
-34
  0
LINE
  8
0
 10
81.65
 11
81.65
 20
0
 21
14
  0
LINE
  8
0
 10
81.65
 11
95.65
 20
14
 21
14
  0
LINE
  8
0
 10
95.65
 11
95.65
 20
14
 21
0
  0
LINE
  8
0
 10
95.65
 11
81.65
 20
0
 21
0
  0
LINE
  8
0
 10
87.2
 11
87.2
 20
34
 21
48
  0
LINE
  8
0
 10
87.2
 11
101.2
 20
48
 21
48
  0
LINE
  8
0
 10
101.2
 11
101.2
 20
48
 21
34
  0
LINE
  8
0
 10
101.2
 11
87.2
 20
34
 21
34
  0
LINE
  8
0
 10
87.2
 11
87.2
 20
51
 21
65
  0
LINE
  8
0
 10
87.2
 11
101.2
 20
65
 21
65
  0
LINE
  8
0
 10
101.2
 11
101.2
 20
65
 21
51
  0
LINE
  8
0
 10
101.2
 11
87.2
 20
51
 21
51
  0
LINE
  8
0
 10
90.65
 11
90.65
 20
-17
 21
-3
  0
LINE
  8
0
 10
90.65
 11
104.65
 20
-3
 21
-3
  0
LINE
  8
0
 10
104.65
 11
104.65
 20
-3
 21
-17
  0
LINE
  8
0
 10
104.65
 11
90.65
 20
-17
 21
-17
  0
LINE
  8
0
 10
96.2
 11
96.2
 20
17
 21
31
  0
LINE
  8
0
 10
96.2
 11
110.2
 20
31
 21
31
  0
LINE
  8
0
 10
110.2
 11
110.2
 20
31
 21
17
  0
LINE
  8
0
 10
110.2
 11
96.2
 20
17
 21
17
  0
LINE
  8
0
 10
100.7
 11
100.7
 20
0
 21
14
  0
LINE
  8
0
 10
100.7
 11
114.7
 20
14
 21
14
  0
LINE
  8
0
 10
114.7
 11
114.7
 20
14
 21
0
  0
LINE
  8
0
 10
114.7
 11
100.7
 20
0
 21
0
  0
LINE
  8
0
 10
106.25
 11
106.25
 20
34
 21
48
  0
LINE
  8
0
 10
106.25
 11
120.25
 20
48
 21
48
  0
LINE
  8
0
 10
120.25
 11
120.25
 20
48
 21
34
  0
LINE
  8
0
 10
120.25
 11
106.25
 20
34
 21
34
  0
LINE
  8
0
 10
106.25
 11
106.25
 20
51
 21
65
  0
LINE
  8
0
 10
106.25
 11
120.25
 20
65
 21
65
  0
LINE
  8
0
 10
120.25
 11
120.25
 20
65
 21
51
  0
LINE
  8
0
 10
120.25
 11
106.25
 20
51
 21
51
  0
LINE
  8
0
 10
109.7
 11
109.7
 20
-17
 21
-3
  0
LINE
  8
0
 10
109.7
 11
123.7
 20
-3
 21
-3
  0
LINE
  8
0
 10
123.7
 11
123.7
 20
-3
 21
-17
  0
LINE
  8
0
 10
123.7
 11
109.7
 20
-17
 21
-17
  0
LINE
  8
0
 10
115.25
 11
115.25
 20
17
 21
31
  0
LINE
  8
0
 10
115.25
 11
129.25
 20
31
 21
31
  0
LINE
  8
0
 10
129.25
 11
129.25
 20
31
 21
17
  0
LINE
  8
0
 10
129.25
 11
115.25
 20
17
 21
17
  0
LINE
  8
0
 10
119.75
 11
119.75
 20
0
 21
14
  0
LINE
  8
0
 10
119.75
 11
133.75
 20
14
 21
14
  0
LINE
  8
0
 10
133.75
 11
133.75
 20
14
 21
0
  0
LINE
  8
0
 10
133.75
 11
119.75
 20
0
 21
0
  0
LINE
  8
0
 10
125.3
 11
125.3
 20
34
 21
48
  0
LINE
  8
0
 10
125.3
 11
139.3
 20
48
 21
48
  0
LINE
  8
0
 10
139.3
 11
139.3
 20
48
 21
34
  0
LINE
  8
0
 10
139.3
 11
125.3
 20
34
 21
34
  0
LINE
  8
0
 10
125.3
 11
125.3
 20
51
 21
65
  0
LINE
  8
0
 10
125.3
 11
139.3
 20
65
 21
65
  0
LINE
  8
0
 10
139.3
 11
139.3
 20
65
 21
51
  0
LINE
  8
0
 10
139.3
 11
125.3
 20
51
 21
51
  0
LINE
  8
0
 10
128.75
 11
128.75
 20
-17
 21
-3
  0
LINE
  8
0
 10
128.75
 11
142.75
 20
-3
 21
-3
  0
LINE
  8
0
 10
142.75
 11
142.75
 20
-3
 21
-17
  0
LINE
  8
0
 10
142.75
 11
128.75
 20
-17
 21
-17
  0
LINE
  8
0
 10
134.3
 11
134.3
 20
17
 21
31
  0
LINE
  8
0
 10
134.3
 11
148.3
 20
31
 21
31
  0
LINE
  8
0
 10
148.3
 11
148.3
 20
31
 21
17
  0
LINE
  8
0
 10
148.3
 11
134.3
 20
17
 21
17
  0
LINE
  8
0
 10
138.8
 11
138.8
 20
0
 21
14
  0
LINE
  8
0
 10
138.8
 11
152.8
 20
14
 21
14
  0
LINE
  8
0
 10
152.8
 11
152.8
 20
14
 21
0
  0
LINE
  8
0
 10
152.8
 11
138.8
 20
0
 21
0
  0
LINE
  8
0
 10
144.35
 11
144.35
 20
34
 21
48
  0
LINE
  8
0
 10
144.35
 11
158.35
 20
48
 21
48
  0
LINE
  8
0
 10
158.35
 11
158.35
 20
48
 21
34
  0
LINE
  8
0
 10
158.35
 11
144.35
 20
34
 21
34
  0
LINE
  8
0
 10
144.35
 11
144.35
 20
51
 21
65
  0
LINE
  8
0
 10
144.35
 11
158.35
 20
65
 21
65
  0
LINE
  8
0
 10
158.35
 11
158.35
 20
65
 21
51
  0
LINE
  8
0
 10
158.35
 11
144.35
 20
51
 21
51
  0
LINE
  8
0
 10
147.8
 11
147.8
 20
-17
 21
-3
  0
LINE
  8
0
 10
147.8
 11
161.8
 20
-3
 21
-3
  0
LINE
  8
0
 10
161.8
 11
161.8
 20
-3
 21
-17
  0
LINE
  8
0
 10
161.8
 11
147.8
 20
-17
 21
-17
  0
LINE
  8
0
 10
153.35
 11
153.35
 20
17
 21
31
  0
LINE
  8
0
 10
153.35
 11
167.35
 20
31
 21
31
  0
LINE
  8
0
 10
167.35
 11
167.35
 20
31
 21
17
  0
LINE
  8
0
 10
167.35
 11
153.35
 20
17
 21
17
  0
LINE
  8
0
 10
157.85
 11
157.85
 20
0
 21
14
  0
LINE
  8
0
 10
157.85
 11
171.85
 20
14
 21
14
  0
LINE
  8
0
 10
171.85
 11
171.85
 20
14
 21
0
  0
LINE
  8
0
 10
171.85
 11
157.85
 20
0
 21
0
  0
LINE
  8
0
 10
163.4
 11
163.4
 20
34
 21
48
  0
LINE
  8
0
 10
163.4
 11
177.4
 20
48
 21
48
  0
LINE
  8
0
 10
177.4
 11
177.4
 20
48
 21
34
  0
LINE
  8
0
 10
177.4
 11
163.4
 20
34
 21
34
  0
LINE
  8
0
 10
163.4
 11
163.4
 20
51
 21
65
  0
LINE
  8
0
 10
163.4
 11
177.4
 20
65
 21
65
  0
LINE
  8
0
 10
177.4
 11
177.4
 20
65
 21
51
  0
LINE
  8
0
 10
177.4
 11
163.4
 20
51
 21
51
  0
LINE
  8
0
 10
166.7
 11
166.7
 20
-34
 21
-20
  0
LINE
  8
0
 10
166.7
 11
180.7
 20
-20
 21
-20
  0
LINE
  8
0
 10
180.7
 11
180.7
 20
-20
 21
-34
  0
LINE
  8
0
 10
180.7
 11
166.7
 20
-34
 21
-34
  0
LINE
  8
0
 10
166.85
 11
166.85
 20
-17
 21
-3
  0
LINE
  8
0
 10
166.85
 11
180.85
 20
-3
 21
-3
  0
LINE
  8
0
 10
180.85
 11
180.85
 20
-3
 21
-17
  0
LINE
  8
0
 10
180.85
 11
166.85
 20
-17
 21
-17
  0
LINE
  8
0
 10
172.4
 11
172.4
 20
17
 21
31
  0
LINE
  8
0
 10
172.4
 11
186.4
 20
31
 21
31
  0
LINE
  8
0
 10
186.4
 11
186.4
 20
31
 21
17
  0
LINE
  8
0
 10
186.4
 11
172.4
 20
17
 21
17
  0
LINE
  8
0
 10
176.9
 11
176.9
 20
0
 21
14
  0
LINE
  8
0
 10
176.9
 11
190.9
 20
14
 21
14
  0
LINE
  8
0
 10
190.9
 11
190.9
 20
14
 21
0
  0
LINE
  8
0
 10
190.9
 11
176.9
 20
0
 21
0
  0
LINE
  8
0
 10
182.45
 11
182.45
 20
34
 21
48
  0
LINE
  8
0
 10
182.45
 11
196.45
 20
48
 21
48
  0
LINE
  8
0
 10
196.45
 11
196.45
 20
48
 21
34
  0
LINE
  8
0
 10
196.45
 11
182.45
 20
34
 21
34
  0
LINE
  8
0
 10
182.45
 11
182.45
 20
51
 21
65
  0
LINE
  8
0
 10
182.45
 11
196.45
 20
65
 21
65
  0
LINE
  8
0
 10
196.45
 11
196.45
 20
65
 21
51
  0
LINE
  8
0
 10
196.45
 11
182.45
 20
51
 21
51
  0
LINE
  8
0
 10
185.9
 11
185.9
 20
-17
 21
-3
  0
LINE
  8
0
 10
185.9
 11
199.9
 20
-3
 21
-3
  0
LINE
  8
0
 10
199.9
 11
199.9
 20
-3
 21
-17
  0
LINE
  8
0
 10
199.9
 11
185.9
 20
-17
 21
-17
  0
LINE
  8
0
 10
191.45
 11
191.45
 20
17
 21
31
  0
LINE
  8
0
 10
191.45
 11
205.45
 20
31
 21
31
  0
LINE
  8
0
 10
205.45
 11
205.45
 20
31
 21
17
  0
LINE
  8
0
 10
205.45
 11
191.45
 20
17
 21
17
  0
LINE
  8
0
 10
195.95
 11
195.95
 20
0
 21
14
  0
LINE
  8
0
 10
195.95
 11
209.95
 20
14
 21
14
  0
LINE
  8
0
 10
209.95
 11
209.95
 20
14
 21
0
  0
LINE
  8
0
 10
209.95
 11
195.95
 20
0
 21
0
  0
LINE
  8
0
 10
201.5
 11
201.5
 20
34
 21
48
  0
LINE
  8
0
 10
201.5
 11
215.5
 20
48
 21
48
  0
LINE
  8
0
 10
215.5
 11
215.5
 20
48
 21
34
  0
LINE
  8
0
 10
215.5
 11
201.5
 20
34
 21
34
  0
LINE
  8
0
 10
201.5
 11
201.5
 20
51
 21
65
  0
LINE
  8
0
 10
201.5
 11
215.5
 20
65
 21
65
  0
LINE
  8
0
 10
215.5
 11
215.5
 20
65
 21
51
  0
LINE
  8
0
 10
215.5
 11
201.5
 20
51
 21
51
  0
LINE
  8
0
 10
204.95
 11
204.95
 20
-17
 21
-3
  0
LINE
  8
0
 10
204.95
 11
218.95
 20
-3
 21
-3
  0
LINE
  8
0
 10
218.95
 11
218.95
 20
-3
 21
-17
  0
LINE
  8
0
 10
218.95
 11
204.95
 20
-17
 21
-17
  0
LINE
  8
0
 10
210.5
 11
210.5
 20
17
 21
31
  0
LINE
  8
0
 10
210.5
 11
224.5
 20
31
 21
31
  0
LINE
  8
0
 10
224.5
 11
224.5
 20
31
 21
17
  0
LINE
  8
0
 10
224.5
 11
210.5
 20
17
 21
17
  0
LINE
  8
0
 10
215
 11
215
 20
0
 21
14
  0
LINE
  8
0
 10
215
 11
229
 20
14
 21
14
  0
LINE
  8
0
 10
229
 11
229
 20
14
 21
0
  0
LINE
  8
0
 10
229
 11
215
 20
0
 21
0
  0
LINE
  8
0
 10
220.55
 11
220.55
 20
34
 21
48
  0
LINE
  8
0
 10
220.55
 11
234.55
 20
48
 21
48
  0
LINE
  8
0
 10
234.55
 11
234.55
 20
48
 21
34
  0
LINE
  8
0
 10
234.55
 11
220.55
 20
34
 21
34
  0
LINE
  8
0
 10
220.55
 11
220.55
 20
51
 21
65
  0
LINE
  8
0
 10
220.55
 11
234.55
 20
65
 21
65
  0
LINE
  8
0
 10
234.55
 11
234.55
 20
65
 21
51
  0
LINE
  8
0
 10
234.55
 11
220.55
 20
51
 21
51
  0
LINE
  8
0
 10
224
 11
224
 20
-17
 21
-3
  0
LINE
  8
0
 10
224
 11
238
 20
-3
 21
-3
  0
LINE
  8
0
 10
238
 11
238
 20
-3
 21
-17
  0
LINE
  8
0
 10
238
 11
224
 20
-17
 21
-17
  0
LINE
  8
0
 10
229.55
 11
229.55
 20
17
 21
31
  0
LINE
  8
0
 10
229.55
 11
243.55
 20
31
 21
31
  0
LINE
  8
0
 10
243.55
 11
243.55
 20
31
 21
17
  0
LINE
  8
0
 10
243.55
 11
229.55
 20
17
 21
17
  0
LINE
  8
0
 10
230.5
 11
230.5
 20
-34
 21
-20
  0
LINE
  8
0
 10
230.5
 11
244.5
 20
-20
 21
-20
  0
LINE
  8
0
 10
244.5
 11
244.5
 20
-20
 21
-34
  0
LINE
  8
0
 10
244.5
 11
230.5
 20
-34
 21
-34
  0
LINE
  8
0
 10
234.05
 11
234.05
 20
0
 21
14
  0
LINE
  8
0
 10
234.05
 11
248.05
 20
14
 21
14
  0
LINE
  8
0
 10
248.05
 11
248.05
 20
14
 21
0
  0
LINE
  8
0
 10
248.05
 11
234.05
 20
0
 21
0
  0
LINE
  8
0
 10
239.6
 11
239.6
 20
34
 21
48
  0
LINE
  8
0
 10
239.6
 11
253.6
 20
48
 21
48
  0
LINE
  8
0
 10
253.6
 11
253.6
 20
48
 21
34
  0
LINE
  8
0
 10
253.6
 11
239.6
 20
34
 21
34
  0
LINE
  8
0
 10
239.6
 11
239.6
 20
51
 21
65
  0
LINE
  8
0
 10
239.6
 11
253.6
 20
65
 21
65
  0
LINE
  8
0
 10
253.6
 11
253.6
 20
65
 21
51
  0
LINE
  8
0
 10
253.6
 11
239.6
 20
51
 21
51
  0
LINE
  8
0
 10
243.05
 11
243.05
 20
-17
 21
-3
  0
LINE
  8
0
 10
243.05
 11
257.05
 20
-3
 21
-3
  0
LINE
  8
0
 10
257.05
 11
257.05
 20
-3
 21
-17
  0
LINE
  8
0
 10
257.05
 11
243.05
 20
-17
 21
-17
  0
LINE
  8
0
 10
248.6
 11
248.6
 20
17
 21
31
  0
LINE
  8
0
 10
248.6
 11
262.6
 20
31
 21
31
  0
LINE
  8
0
 10
262.6
 11
262.6
 20
31
 21
17
  0
LINE
  8
0
 10
262.6
 11
248.6
 20
17
 21
17
  0
LINE
  8
0
 10
251.3
 11
251.3
 20
-34
 21
-20
  0
LINE
  8
0
 10
251.3
 11
265.3
 20
-20
 21
-20
  0
LINE
  8
0
 10
265.3
 11
265.3
 20
-20
 21
-34
  0
LINE
  8
0
 10
265.3
 11
251.3
 20
-34
 21
-34
  0
LINE
  8
0
 10
253.1
 11
253.1
 20
0
 21
14
  0
LINE
  8
0
 10
253.1
 11
267.1
 20
14
 21
14
  0
LINE
  8
0
 10
267.1
 11
267.1
 20
14
 21
0
  0
LINE
  8
0
 10
267.1
 11
253.1
 20
0
 21
0
  0
LINE
  8
0
 10
258.65
 11
258.65
 20
34
 21
48
  0
LINE
  8
0
 10
258.65
 11
272.65
 20
48
 21
48
  0
LINE
  8
0
 10
272.65
 11
272.65
 20
48
 21
34
  0
LINE
  8
0
 10
272.65
 11
258.65
 20
34
 21
34
  0
LINE
  8
0
 10
258.65
 11
258.65
 20
51
 21
65
  0
LINE
  8
0
 10
258.65
 11
272.65
 20
65
 21
65
  0
LINE
  8
0
 10
272.65
 11
272.65
 20
65
 21
51
  0
LINE
  8
0
 10
272.65
 11
258.65
 20
51
 21
51
  0
LINE
  8
0
 10
264.3
 11
264.3
 20
-17
 21
-3
  0
LINE
  8
0
 10
264.3
 11
278.3
 20
-3
 21
-3
  0
LINE
  8
0
 10
278.3
 11
278.3
 20
-3
 21
-17
  0
LINE
  8
0
 10
278.3
 11
264.3
 20
-17
 21
-17
  0
LINE
  8
0
 10
267.65
 11
267.65
 20
17
 21
31
  0
LINE
  8
0
 10
267.65
 11
281.65
 20
31
 21
31
  0
LINE
  8
0
 10
281.65
 11
281.65
 20
31
 21
17
  0
LINE
  8
0
 10
281.65
 11
267.65
 20
17
 21
17
  0
LINE
  8
0
 10
270.35
 11
270.35
 20
-34
 21
-20
  0
LINE
  8
0
 10
270.35
 11
284.35
 20
-20
 21
-20
  0
LINE
  8
0
 10
284.35
 11
284.35
 20
-20
 21
-34
  0
LINE
  8
0
 10
284.35
 11
270.35
 20
-34
 21
-34
  0
LINE
  8
0
 10
277.7
 11
277.7
 20
51
 21
65
  0
LINE
  8
0
 10
277.7
 11
291.7
 20
65
 21
65
  0
LINE
  8
0
 10
291.7
 11
291.7
 20
65
 21
51
  0
LINE
  8
0
 10
291.7
 11
277.7
 20
51
 21
51
  0
LINE
  8
0
 10
284.75
 11
284.75
 20
-17
 21
-3
  0
LINE
  8
0
 10
284.75
 11
298.75
 20
-3
 21
-3
  0
LINE
  8
0
 10
298.75
 11
298.75
 20
-3
 21
-17
  0
LINE
  8
0
 10
298.75
 11
284.75
 20
-17
 21
-17
  0
LINE
  8
0
 10
285.9
 11
285.9
 20
0
 21
14
  0
LINE
  8
0
 10
285.9
 11
299.9
 20
14
 21
14
  0
LINE
  8
0
 10
299.9
 11
299.9
 20
14
 21
0
  0
LINE
  8
0
 10
299.9
 11
285.9
 20
0
 21
0
  0
LINE
  8
0
 10
288.7
 11
288.7
 20
34
 21
48
  0
LINE
  8
0
 10
288.7
 11
302.7
 20
48
 21
48
  0
LINE
  8
0
 10
302.7
 11
302.7
 20
48
 21
34
  0
LINE
  8
0
 10
302.7
 11
288.7
 20
34
 21
34
  0
LINE
  8
0
 10
289.4
 11
289.4
 20
-34
 21
-20
  0
LINE
  8
0
 10
289.4
 11
303.4
 20
-20
 21
-20
  0
LINE
  8
0
 10
303.4
 11
303.4
 20
-20
 21
-34
  0
LINE
  8
0
 10
303.4
 11
289.4
 20
-34
 21
-34
  0
LINE
  8
0
 10
292.2
 11
292.2
 20
17
 21
31
  0
LINE
  8
0
 10
292.2
 11
306.2
 20
31
 21
31
  0
LINE
  8
0
 10
306.2
 11
306.2
 20
31
 21
17
  0
LINE
  8
0
 10
306.2
 11
292.2
 20
17
 21
17
  0
LINE
  8
0
 10
296.75
 11
296.75
 20
51
 21
65
  0
LINE
  8
0
 10
296.75
 11
310.75
 20
65
 21
65
  0
LINE
  8
0
 10
310.75
 11
310.75
 20
65
 21
51
  0
LINE
  8
0
 10
310.75
 11
296.75
 20
51
 21
51
  0
LINE
  8
0
 10
303.8
 11
303.8
 20
-17
 21
-3
  0
LINE
  8
0
 10
303.8
 11
317.8
 20
-3
 21
-3
  0
LINE
  8
0
 10
317.8
 11
317.8
 20
-3
 21
-17
  0
LINE
  8
0
 10
317.8
 11
303.8
 20
-17
 21
-17
  0
LINE
  8
0
 10
308.45
 11
308.45
 20
-34
 21
-20
  0
LINE
  8
0
 10
308.45
 11
322.45
 20
-20
 21
-20
  0
LINE
  8
0
 10
322.45
 11
322.45
 20
-20
 21
-34
  0
LINE
  8
0
 10
322.45
 11
308.45
 20
-34
 21
-34
  0
ENDSEC
  0
SECTION
  2
OBJECTS
  0
DICTIONARY
  0
ENDSEC
  0
EOF
