  0
SECTION
  2
BLOCKS
  0
ENDSEC
  0
SECTION
  2
ENTITIES
  0
LINE
  8
0
 10
0
 11
0
 20
-34
 21
-20
  0
LINE
  8
0
 10
0
 11
14
 20
-20
 21
-20
  0
LINE
  8
0
 10
14
 11
14
 20
-20
 21
-34
  0
LINE
  8
0
 10
14
 11
0
 20
-34
 21
-34
  0
LINE
  8
0
 10
0
 11
0
 20
-17
 21
-3
  0
LINE
  8
0
 10
0
 11
14
 20
-3
 21
-3
  0
LINE
  8
0
 10
14
 11
14
 20
-3
 21
-17
  0
LINE
  8
0
 10
14
 11
0
 20
-17
 21
-17
  0
LINE
  8
0
 10
0
 11
0
 20
0
 21
14
  0
LINE
  8
0
 10
0
 11
14
 20
14
 21
14
  0
LINE
  8
0
 10
14
 11
14
 20
14
 21
0
  0
LINE
  8
0
 10
14
 11
0
 20
0
 21
0
  0
LINE
  8
0
 10
0
 11
0
 20
17
 21
31
  0
LINE
  8
0
 10
0
 11
14
 20
31
 21
31
  0
LINE
  8
0
 10
14
 11
14
 20
31
 21
17
  0
LINE
  8
0
 10
14
 11
0
 20
17
 21
17
  0
LINE
  8
0
 10
0
 11
0
 20
34
 21
48
  0
LINE
  8
0
 10
0
 11
14
 20
48
 21
48
  0
LINE
  8
0
 10
14
 11
14
 20
48
 21
34
  0
LINE
  8
0
 10
14
 11
0
 20
34
 21
34
  0
LINE
  8
0
 10
0
 11
0
 20
51
 21
65
  0
LINE
  8
0
 10
0
 11
14
 20
65
 21
65
  0
LINE
  8
0
 10
14
 11
14
 20
65
 21
51
  0
LINE
  8
0
 10
14
 11
0
 20
51
 21
51
  0
LINE
  8
0
 10
17
 11
17
 20
34
 21
48
  0
LINE
  8
0
 10
17
 11
31
 20
48
 21
48
  0
LINE
  8
0
 10
31
 11
31
 20
48
 21
34
  0
LINE
  8
0
 10
31
 11
17
 20
34
 21
34
  0
LINE
  8
0
 10
19.1
 11
19.1
 20
-34
 21
-20
  0
LINE
  8
0
 10
19.1
 11
33.1
 20
-20
 21
-20
  0
LINE
  8
0
 10
33.1
 11
33.1
 20
-20
 21
-34
  0
LINE
  8
0
 10
33.1
 11
19.1
 20
-34
 21
-34
  0
LINE
  8
0
 10
19.8
 11
19.8
 20
17
 21
31
  0
LINE
  8
0
 10
19.8
 11
33.8
 20
31
 21
31
  0
LINE
  8
0
 10
33.8
 11
33.8
 20
31
 21
17
  0
LINE
  8
0
 10
33.8
 11
19.8
 20
17
 21
17
  0
LINE
  8
0
 10
22.6
 11
22.6
 20
0
 21
14
  0
LINE
  8
0
 10
22.6
 11
36.6
 20
14
 21
14
  0
LINE
  8
0
 10
36.6
 11
36.6
 20
14
 21
0
  0
LINE
  8
0
 10
36.6
 11
22.6
 20
0
 21
0
  0
LINE
  8
0
 10
26.8
 11
26.8
 20
-17
 21
-3
  0
LINE
  8
0
 10
26.8
 11
40.8
 20
-3
 21
-3
  0
LINE
  8
0
 10
40.8
 11
40.8
 20
-3
 21
-17
  0
LINE
  8
0
 10
40.8
 11
26.8
 20
-17
 21
-17
  0
LINE
  8
0
 10
31
 11
31
 20
51
 21
65
  0
LINE
  8
0
 10
31
 11
45
 20
65
 21
65
  0
LINE
  8
0
 10
45
 11
45
 20
65
 21
51
  0
LINE
  8
0
 10
45
 11
31
 20
51
 21
51
  0
LINE
  8
0
 10
34
 11
34
 20
34
 21
48
  0
LINE
  8
0
 10
34
 11
48
 20
48
 21
48
  0
LINE
  8
0
 10
48
 11
48
 20
48
 21
34
  0
LINE
  8
0
 10
48
 11
34
 20
34
 21
34
  0
LINE
  8
0
 10
38.2
 11
38.2
 20
-34
 21
-20
  0
LINE
  8
0
 10
38.2
 11
52.2
 20
-20
 21
-20
  0
LINE
  8
0
 10
52.2
 11
52.2
 20
-20
 21
-34
  0
LINE
  8
0
 10
52.2
 11
38.2
 20
-34
 21
-34
  0
LINE
  8
0
 10
39.6
 11
39.6
 20
17
 21
31
  0
LINE
  8
0
 10
39.6
 11
53.6
 20
31
 21
31
  0
LINE
  8
0
 10
53.6
 11
53.6
 20
31
 21
17
  0
LINE
  8
0
 10
53.6
 11
39.6
 20
17
 21
17
  0
LINE
  8
0
 10
45.2
 11
45.2
 20
0
 21
14
  0
LINE
  8
0
 10
45.2
 11
59.2
 20
14
 21
14
  0
LINE
  8
0
 10
59.2
 11
59.2
 20
14
 21
0
  0
LINE
  8
0
 10
59.2
 11
45.2
 20
0
 21
0
  0
LINE
  8
0
 10
48
 11
48
 20
51
 21
65
  0
LINE
  8
0
 10
48
 11
62
 20
65
 21
65
  0
LINE
  8
0
 10
62
 11
62
 20
65
 21
51
  0
LINE
  8
0
 10
62
 11
48
 20
51
 21
51
  0
LINE
  8
0
 10
50.8
 11
50.8
 20
-17
 21
-3
  0
LINE
  8
0
 10
50.8
 11
64.8
 20
-3
 21
-3
  0
LINE
  8
0
 10
64.8
 11
64.8
 20
-3
 21
-17
  0
LINE
  8
0
 10
64.8
 11
50.8
 20
-17
 21
-17
  0
LINE
  8
0
 10
51
 11
51
 20
34
 21
48
  0
LINE
  8
0
 10
51
 11
65
 20
48
 21
48
  0
LINE
  8
0
 10
65
 11
65
 20
48
 21
34
  0
LINE
  8
0
 10
65
 11
51
 20
34
 21
34
  0
LINE
  8
0
 10
55.2
 11
55.2
 20
-34
 21
-20
  0
LINE
  8
0
 10
55.2
 11
69.2
 20
-20
 21
-20
  0
LINE
  8
0
 10
69.2
 11
69.2
 20
-20
 21
-34
  0
LINE
  8
0
 10
69.2
 11
55.2
 20
-34
 21
-34
  0
LINE
  8
0
 10
56.6
 11
56.6
 20
17
 21
31
  0
LINE
  8
0
 10
56.6
 11
70.6
 20
31
 21
31
  0
LINE
  8
0
 10
70.6
 11
70.6
 20
31
 21
17
  0
LINE
  8
0
 10
70.6
 11
56.6
 20
17
 21
17
  0
LINE
  8
0
 10
62.2
 11
62.2
 20
0
 21
14
  0
LINE
  8
0
 10
62.2
 11
76.2
 20
14
 21
14
  0
LINE
  8
0
 10
76.2
 11
76.2
 20
14
 21
0
  0
LINE
  8
0
 10
76.2
 11
62.2
 20
0
 21
0
  0
LINE
  8
0
 10
65
 11
65
 20
51
 21
65
  0
LINE
  8
0
 10
65
 11
79
 20
65
 21
65
  0
LINE
  8
0
 10
79
 11
79
 20
65
 21
51
  0
LINE
  8
0
 10
79
 11
65
 20
51
 21
51
  0
LINE
  8
0
 10
67.8
 11
67.8
 20
-17
 21
-3
  0
LINE
  8
0
 10
67.8
 11
81.8
 20
-3
 21
-3
  0
LINE
  8
0
 10
81.8
 11
81.8
 20
-3
 21
-17
  0
LINE
  8
0
 10
81.8
 11
67.8
 20
-17
 21
-17
  0
LINE
  8
0
 10
68
 11
68
 20
34
 21
48
  0
LINE
  8
0
 10
68
 11
82
 20
48
 21
48
  0
LINE
  8
0
 10
82
 11
82
 20
48
 21
34
  0
LINE
  8
0
 10
82
 11
68
 20
34
 21
34
  0
LINE
  8
0
 10
72.2
 11
72.2
 20
-34
 21
-20
  0
LINE
  8
0
 10
72.2
 11
86.2
 20
-20
 21
-20
  0
LINE
  8
0
 10
86.2
 11
86.2
 20
-20
 21
-34
  0
LINE
  8
0
 10
86.2
 11
72.2
 20
-34
 21
-34
  0
LINE
  8
0
 10
73.6
 11
73.6
 20
17
 21
31
  0
LINE
  8
0
 10
73.6
 11
87.6
 20
31
 21
31
  0
LINE
  8
0
 10
87.6
 11
87.6
 20
31
 21
17
  0
LINE
  8
0
 10
87.6
 11
73.6
 20
17
 21
17
  0
LINE
  8
0
 10
79.2
 11
79.2
 20
0
 21
14
  0
LINE
  8
0
 10
79.2
 11
93.2
 20
14
 21
14
  0
LINE
  8
0
 10
93.2
 11
93.2
 20
14
 21
0
  0
LINE
  8
0
 10
93.2
 11
79.2
 20
0
 21
0
  0
LINE
  8
0
 10
82
 11
82
 20
51
 21
65
  0
LINE
  8
0
 10
82
 11
96
 20
65
 21
65
  0
LINE
  8
0
 10
96
 11
96
 20
65
 21
51
  0
LINE
  8
0
 10
96
 11
82
 20
51
 21
51
  0
LINE
  8
0
 10
84.8
 11
84.8
 20
-17
 21
-3
  0
LINE
  8
0
 10
84.8
 11
98.8
 20
-3
 21
-3
  0
LINE
  8
0
 10
98.8
 11
98.8
 20
-3
 21
-17
  0
LINE
  8
0
 10
98.8
 11
84.8
 20
-17
 21
-17
  0
LINE
  8
0
 10
85
 11
85
 20
34
 21
48
  0
LINE
  8
0
 10
85
 11
99
 20
48
 21
48
  0
LINE
  8
0
 10
99
 11
99
 20
48
 21
34
  0
LINE
  8
0
 10
99
 11
85
 20
34
 21
34
  0
LINE
  8
0
 10
90.6
 11
90.6
 20
17
 21
31
  0
LINE
  8
0
 10
90.6
 11
104.6
 20
31
 21
31
  0
LINE
  8
0
 10
104.6
 11
104.6
 20
31
 21
17
  0
LINE
  8
0
 10
104.6
 11
90.6
 20
17
 21
17
  0
LINE
  8
0
 10
96.2
 11
96.2
 20
0
 21
14
  0
LINE
  8
0
 10
96.2
 11
110.2
 20
14
 21
14
  0
LINE
  8
0
 10
110.2
 11
110.2
 20
14
 21
0
  0
LINE
  8
0
 10
110.2
 11
96.2
 20
0
 21
0
  0
LINE
  8
0
 10
99
 11
99
 20
51
 21
65
  0
LINE
  8
0
 10
99
 11
113
 20
65
 21
65
  0
LINE
  8
0
 10
113
 11
113
 20
65
 21
51
  0
LINE
  8
0
 10
113
 11
99
 20
51
 21
51
  0
LINE
  8
0
 10
101.8
 11
101.8
 20
-17
 21
-3
  0
LINE
  8
0
 10
101.8
 11
115.8
 20
-3
 21
-3
  0
LINE
  8
0
 10
115.8
 11
115.8
 20
-3
 21
-17
  0
LINE
  8
0
 10
115.8
 11
101.8
 20
-17
 21
-17
  0
LINE
  8
0
 10
102
 11
102
 20
34
 21
48
  0
LINE
  8
0
 10
102
 11
116
 20
48
 21
48
  0
LINE
  8
0
 10
116
 11
116
 20
48
 21
34
  0
LINE
  8
0
 10
116
 11
102
 20
34
 21
34
  0
LINE
  8
0
 10
107.6
 11
107.6
 20
17
 21
31
  0
LINE
  8
0
 10
107.6
 11
121.6
 20
31
 21
31
  0
LINE
  8
0
 10
121.6
 11
121.6
 20
31
 21
17
  0
LINE
  8
0
 10
121.6
 11
107.6
 20
17
 21
17
  0
LINE
  8
0
 10
113.2
 11
113.2
 20
0
 21
14
  0
LINE
  8
0
 10
113.2
 11
127.2
 20
14
 21
14
  0
LINE
  8
0
 10
127.2
 11
127.2
 20
14
 21
0
  0
LINE
  8
0
 10
127.2
 11
113.2
 20
0
 21
0
  0
LINE
  8
0
 10
116
 11
116
 20
51
 21
65
  0
LINE
  8
0
 10
116
 11
130
 20
65
 21
65
  0
LINE
  8
0
 10
130
 11
130
 20
65
 21
51
  0
LINE
  8
0
 10
130
 11
116
 20
51
 21
51
  0
LINE
  8
0
 10
117.2
 11
117.2
 20
-34
 21
-20
  0
LINE
  8
0
 10
117.2
 11
131.2
 20
-20
 21
-20
  0
LINE
  8
0
 10
131.2
 11
131.2
 20
-20
 21
-34
  0
LINE
  8
0
 10
131.2
 11
117.2
 20
-34
 21
-34
  0
LINE
  8
0
 10
118.8
 11
118.8
 20
-17
 21
-3
  0
LINE
  8
0
 10
118.8
 11
132.8
 20
-3
 21
-3
  0
LINE
  8
0
 10
132.8
 11
132.8
 20
-3
 21
-17
  0
LINE
  8
0
 10
132.8
 11
118.8
 20
-17
 21
-17
  0
LINE
  8
0
 10
119
 11
119
 20
34
 21
48
  0
LINE
  8
0
 10
119
 11
133
 20
48
 21
48
  0
LINE
  8
0
 10
133
 11
133
 20
48
 21
34
  0
LINE
  8
0
 10
133
 11
119
 20
34
 21
34
  0
LINE
  8
0
 10
124.6
 11
124.6
 20
17
 21
31
  0
LINE
  8
0
 10
124.6
 11
138.6
 20
31
 21
31
  0
LINE
  8
0
 10
138.6
 11
138.6
 20
31
 21
17
  0
LINE
  8
0
 10
138.6
 11
124.6
 20
17
 21
17
  0
LINE
  8
0
 10
130.2
 11
130.2
 20
0
 21
14
  0
LINE
  8
0
 10
130.2
 11
144.2
 20
14
 21
14
  0
LINE
  8
0
 10
144.2
 11
144.2
 20
14
 21
0
  0
LINE
  8
0
 10
144.2
 11
130.2
 20
0
 21
0
  0
LINE
  8
0
 10
133
 11
133
 20
51
 21
65
  0
LINE
  8
0
 10
133
 11
147
 20
65
 21
65
  0
LINE
  8
0
 10
147
 11
147
 20
65
 21
51
  0
LINE
  8
0
 10
147
 11
133
 20
51
 21
51
  0
LINE
  8
0
 10
135.8
 11
135.8
 20
-17
 21
-3
  0
LINE
  8
0
 10
135.8
 11
149.8
 20
-3
 21
-3
  0
LINE
  8
0
 10
149.8
 11
149.8
 20
-3
 21
-17
  0
LINE
  8
0
 10
149.8
 11
135.8
 20
-17
 21
-17
  0
LINE
  8
0
 10
136
 11
136
 20
34
 21
48
  0
LINE
  8
0
 10
136
 11
150
 20
48
 21
48
  0
LINE
  8
0
 10
150
 11
150
 20
48
 21
34
  0
LINE
  8
0
 10
150
 11
136
 20
34
 21
34
  0
LINE
  8
0
 10
141.6
 11
141.6
 20
17
 21
31
  0
LINE
  8
0
 10
141.6
 11
155.6
 20
31
 21
31
  0
LINE
  8
0
 10
155.6
 11
155.6
 20
31
 21
17
  0
LINE
  8
0
 10
155.6
 11
141.6
 20
17
 21
17
  0
LINE
  8
0
 10
147.2
 11
147.2
 20
0
 21
14
  0
LINE
  8
0
 10
147.2
 11
161.2
 20
14
 21
14
  0
LINE
  8
0
 10
161.2
 11
161.2
 20
14
 21
0
  0
LINE
  8
0
 10
161.2
 11
147.2
 20
0
 21
0
  0
LINE
  8
0
 10
150
 11
150
 20
51
 21
65
  0
LINE
  8
0
 10
150
 11
164
 20
65
 21
65
  0
LINE
  8
0
 10
164
 11
164
 20
65
 21
51
  0
LINE
  8
0
 10
164
 11
150
 20
51
 21
51
  0
LINE
  8
0
 10
152.8
 11
152.8
 20
-17
 21
-3
  0
LINE
  8
0
 10
152.8
 11
166.8
 20
-3
 21
-3
  0
LINE
  8
0
 10
166.8
 11
166.8
 20
-3
 21
-17
  0
LINE
  8
0
 10
166.8
 11
152.8
 20
-17
 21
-17
  0
LINE
  8
0
 10
153
 11
153
 20
34
 21
48
  0
LINE
  8
0
 10
153
 11
167
 20
48
 21
48
  0
LINE
  8
0
 10
167
 11
167
 20
48
 21
34
  0
LINE
  8
0
 10
167
 11
153
 20
34
 21
34
  0
LINE
  8
0
 10
158.6
 11
158.6
 20
17
 21
31
  0
LINE
  8
0
 10
158.6
 11
172.6
 20
31
 21
31
  0
LINE
  8
0
 10
172.6
 11
172.6
 20
31
 21
17
  0
LINE
  8
0
 10
172.6
 11
158.6
 20
17
 21
17
  0
LINE
  8
0
 10
162.2
 11
162.2
 20
-34
 21
-20
  0
LINE
  8
0
 10
162.2
 11
176.2
 20
-20
 21
-20
  0
LINE
  8
0
 10
176.2
 11
176.2
 20
-20
 21
-34
  0
LINE
  8
0
 10
176.2
 11
162.2
 20
-34
 21
-34
  0
LINE
  8
0
 10
164.2
 11
164.2
 20
0
 21
14
  0
LINE
  8
0
 10
164.2
 11
178.2
 20
14
 21
14
  0
LINE
  8
0
 10
178.2
 11
178.2
 20
14
 21
0
  0
LINE
  8
0
 10
178.2
 11
164.2
 20
0
 21
0
  0
LINE
  8
0
 10
167
 11
167
 20
51
 21
65
  0
LINE
  8
0
 10
167
 11
181
 20
65
 21
65
  0
LINE
  8
0
 10
181
 11
181
 20
65
 21
51
  0
LINE
  8
0
 10
181
 11
167
 20
51
 21
51
  0
LINE
  8
0
 10
169.8
 11
169.8
 20
-17
 21
-3
  0
LINE
  8
0
 10
169.8
 11
183.8
 20
-3
 21
-3
  0
LINE
  8
0
 10
183.8
 11
183.8
 20
-3
 21
-17
  0
LINE
  8
0
 10
183.8
 11
169.8
 20
-17
 21
-17
  0
LINE
  8
0
 10
170
 11
170
 20
34
 21
48
  0
LINE
  8
0
 10
170
 11
184
 20
48
 21
48
  0
LINE
  8
0
 10
184
 11
184
 20
48
 21
34
  0
LINE
  8
0
 10
184
 11
170
 20
34
 21
34
  0
LINE
  8
0
 10
175.6
 11
175.6
 20
17
 21
31
  0
LINE
  8
0
 10
175.6
 11
189.6
 20
31
 21
31
  0
LINE
  8
0
 10
189.6
 11
189.6
 20
31
 21
17
  0
LINE
  8
0
 10
189.6
 11
175.6
 20
17
 21
17
  0
LINE
  8
0
 10
179.2
 11
179.2
 20
-34
 21
-20
  0
LINE
  8
0
 10
179.2
 11
193.2
 20
-20
 21
-20
  0
LINE
  8
0
 10
193.2
 11
193.2
 20
-20
 21
-34
  0
LINE
  8
0
 10
193.2
 11
179.2
 20
-34
 21
-34
  0
LINE
  8
0
 10
181.2
 11
181.2
 20
0
 21
14
  0
LINE
  8
0
 10
181.2
 11
195.2
 20
14
 21
14
  0
LINE
  8
0
 10
195.2
 11
195.2
 20
14
 21
0
  0
LINE
  8
0
 10
195.2
 11
181.2
 20
0
 21
0
  0
LINE
  8
0
 10
184
 11
184
 20
51
 21
65
  0
LINE
  8
0
 10
184
 11
198
 20
65
 21
65
  0
LINE
  8
0
 10
198
 11
198
 20
65
 21
51
  0
LINE
  8
0
 10
198
 11
184
 20
51
 21
51
  0
LINE
  8
0
 10
186.8
 11
186.8
 20
-17
 21
-3
  0
LINE
  8
0
 10
186.8
 11
200.8
 20
-3
 21
-3
  0
LINE
  8
0
 10
200.8
 11
200.8
 20
-3
 21
-17
  0
LINE
  8
0
 10
200.8
 11
186.8
 20
-17
 21
-17
  0
LINE
  8
0
 10
187
 11
187
 20
34
 21
48
  0
LINE
  8
0
 10
187
 11
201
 20
48
 21
48
  0
LINE
  8
0
 10
201
 11
201
 20
48
 21
34
  0
LINE
  8
0
 10
201
 11
187
 20
34
 21
34
  0
LINE
  8
0
 10
192.6
 11
192.6
 20
17
 21
31
  0
LINE
  8
0
 10
192.6
 11
206.6
 20
31
 21
31
  0
LINE
  8
0
 10
206.6
 11
206.6
 20
31
 21
17
  0
LINE
  8
0
 10
206.6
 11
192.6
 20
17
 21
17
  0
LINE
  8
0
 10
196.2
 11
196.2
 20
-34
 21
-20
  0
LINE
  8
0
 10
196.2
 11
210.2
 20
-20
 21
-20
  0
LINE
  8
0
 10
210.2
 11
210.2
 20
-20
 21
-34
  0
LINE
  8
0
 10
210.2
 11
196.2
 20
-34
 21
-34
  0
LINE
  8
0
 10
198.2
 11
198.2
 20
0
 21
14
  0
LINE
  8
0
 10
198.2
 11
212.2
 20
14
 21
14
  0
LINE
  8
0
 10
212.2
 11
212.2
 20
14
 21
0
  0
LINE
  8
0
 10
212.2
 11
198.2
 20
0
 21
0
  0
LINE
  8
0
 10
201
 11
201
 20
51
 21
65
  0
LINE
  8
0
 10
201
 11
215
 20
65
 21
65
  0
LINE
  8
0
 10
215
 11
215
 20
65
 21
51
  0
LINE
  8
0
 10
215
 11
201
 20
51
 21
51
  0
LINE
  8
0
 10
203.8
 11
203.8
 20
-17
 21
-3
  0
LINE
  8
0
 10
203.8
 11
217.8
 20
-3
 21
-3
  0
LINE
  8
0
 10
217.8
 11
217.8
 20
-3
 21
-17
  0
LINE
  8
0
 10
217.8
 11
203.8
 20
-17
 21
-17
  0
LINE
  8
0
 10
204
 11
204
 20
34
 21
48
  0
LINE
  8
0
 10
204
 11
218
 20
48
 21
48
  0
LINE
  8
0
 10
218
 11
218
 20
48
 21
34
  0
LINE
  8
0
 10
218
 11
204
 20
34
 21
34
  0
LINE
  8
0
 10
209.6
 11
209.6
 20
17
 21
31
  0
LINE
  8
0
 10
209.6
 11
223.6
 20
31
 21
31
  0
LINE
  8
0
 10
223.6
 11
223.6
 20
31
 21
17
  0
LINE
  8
0
 10
223.6
 11
209.6
 20
17
 21
17
  0
LINE
  8
0
 10
213.2
 11
213.2
 20
-34
 21
-20
  0
LINE
  8
0
 10
213.2
 11
227.2
 20
-20
 21
-20
  0
LINE
  8
0
 10
227.2
 11
227.2
 20
-20
 21
-34
  0
LINE
  8
0
 10
227.2
 11
213.2
 20
-34
 21
-34
  0
LINE
  8
0
 10
215.2
 11
215.2
 20
0
 21
14
  0
LINE
  8
0
 10
215.2
 11
229.2
 20
14
 21
14
  0
LINE
  8
0
 10
229.2
 11
229.2
 20
14
 21
0
  0
LINE
  8
0
 10
229.2
 11
215.2
 20
0
 21
0
  0
LINE
  8
0
 10
218
 11
218
 20
51
 21
65
  0
LINE
  8
0
 10
218
 11
232
 20
65
 21
65
  0
LINE
  8
0
 10
232
 11
232
 20
65
 21
51
  0
LINE
  8
0
 10
232
 11
218
 20
51
 21
51
  0
LINE
  8
0
 10
221
 11
221
 20
34
 21
48
  0
LINE
  8
0
 10
221
 11
235
 20
48
 21
48
  0
LINE
  8
0
 10
235
 11
235
 20
48
 21
34
  0
LINE
  8
0
 10
235
 11
221
 20
34
 21
34
  0
LINE
  8
0
 10
226.6
 11
226.6
 20
17
 21
31
  0
LINE
  8
0
 10
226.6
 11
240.6
 20
31
 21
31
  0
LINE
  8
0
 10
240.6
 11
240.6
 20
31
 21
17
  0
LINE
  8
0
 10
240.6
 11
226.6
 20
17
 21
17
  0
LINE
  8
0
 10
230.2
 11
230.2
 20
-34
 21
-20
  0
LINE
  8
0
 10
230.2
 11
244.2
 20
-20
 21
-20
  0
LINE
  8
0
 10
244.2
 11
244.2
 20
-20
 21
-34
  0
LINE
  8
0
 10
244.2
 11
230.2
 20
-34
 21
-34
  0
LINE
  8
0
 10
232
 11
232
 20
-17
 21
-3
  0
LINE
  8
0
 10
232
 11
246
 20
-3
 21
-3
  0
LINE
  8
0
 10
246
 11
246
 20
-3
 21
-17
  0
LINE
  8
0
 10
246
 11
232
 20
-17
 21
-17
  0
LINE
  8
0
 10
235
 11
235
 20
51
 21
65
  0
LINE
  8
0
 10
235
 11
249
 20
65
 21
65
  0
LINE
  8
0
 10
249
 11
249
 20
65
 21
51
  0
LINE
  8
0
 10
249
 11
235
 20
51
 21
51
  0
LINE
  8
0
 10
239.2
 11
239.2
 20
0
 21
14
  0
LINE
  8
0
 10
239.2
 11
253.2
 20
14
 21
14
  0
LINE
  8
0
 10
253.2
 11
253.2
 20
14
 21
0
  0
LINE
  8
0
 10
253.2
 11
239.2
 20
0
 21
0
  0
LINE
  8
0
 10
245
 11
245
 20
34
 21
48
  0
LINE
  8
0
 10
245
 11
259
 20
48
 21
48
  0
LINE
  8
0
 10
259
 11
259
 20
48
 21
34
  0
LINE
  8
0
 10
259
 11
245
 20
34
 21
34
  0
LINE
  8
0
 10
247.8
 11
247.8
 20
17
 21
31
  0
LINE
  8
0
 10
247.8
 11
261.8
 20
31
 21
31
  0
LINE
  8
0
 10
261.8
 11
261.8
 20
31
 21
17
  0
LINE
  8
0
 10
261.8
 11
247.8
 20
17
 21
17
  0
LINE
  8
0
 10
252
 11
252
 20
51
 21
65
  0
LINE
  8
0
 10
252
 11
266
 20
65
 21
65
  0
LINE
  8
0
 10
266
 11
266
 20
65
 21
51
  0
LINE
  8
0
 10
266
 11
252
 20
51
 21
51
  0
ENDSEC
  0
SECTION
  2
OBJECTS
  0
DICTIONARY
  0
ENDSEC
  0
EOF
